<svg width="781" height="196" viewBox="0 0 781 196" fill="none" xmlns="http://www.w3.org/2000/svg">
<circle opacity="0.8" cx="664" cy="112" r="68" fill="#FEFEDB"/>
<circle opacity="0.8" cx="468" cy="92" r="72" fill="white"/>
<circle opacity="0.8" cx="304" cy="128" r="68" fill="#FEFEDB"/>
<circle opacity="0.8" cx="160" cy="76" r="76" fill="white"/>
<circle cx="76" cy="132" r="32" fill="white"/>
<circle cx="20" cy="162" r="20" fill="white"/>
<path d="M687.713 57.5762C687.713 42.1122 700.249 29.5762 715.713 29.5762C731.177 29.5762 743.713 42.1122 743.713 57.5762C743.713 73.0401 731.177 85.5762 715.713 85.5762C700.249 85.5762 687.713 73.0401 687.713 57.5762Z" fill="white"/>
<circle cx="764.019" cy="27.9648" r="16" transform="rotate(-180 764.019 27.9648)" fill="white"/>
<circle cx="146" cy="86" r="80" fill="#FEFEDB"/>
<circle cx="314" cy="118" r="72" fill="white"/>
<circle cx="482" cy="108" r="80" fill="#FEFEDB"/>
<circle cx="650" cy="100" r="72" fill="white"/>
</svg>
