<svg width="18" height="17" viewBox="0 0 18 17" fill="none" xmlns="http://www.w3.org/2000/svg">
<path d="M17.1336 1.83581H15.7553V1.32162C15.7553 0.889563 15.4113 0.546875 14.9961 0.546875C14.5624 0.546875 14.2192 0.889986 14.2192 1.32162V1.83581H12.7626V1.32162C12.7626 0.889563 12.4194 0.546875 12.0039 0.546875C11.5714 0.546875 11.2278 0.889986 11.2278 1.32162V1.83581H9.76954V1.32162C9.76954 0.889563 9.42847 0.546875 8.99387 0.546875C8.57916 0.546875 8.23639 0.889986 8.23639 1.32162V1.83581H6.7773V1.32162C6.7773 0.889563 6.43623 0.546875 6.00375 0.546875C5.58777 0.546875 5.24416 0.889986 5.24416 1.32162V1.83581H3.7876V1.32162C3.7876 0.889563 3.44357 0.546875 3.00982 0.546875C2.5858 0.546875 2.23753 0.889986 2.23753 1.32162V1.83581H0.871958C0.408163 1.83581 0.0175781 2.21496 0.0175781 2.6868V15.6942C0.0175781 16.158 0.408163 16.5469 0.871958 16.5469H17.1336C17.599 16.5469 17.9871 16.158 17.9871 15.6942V2.6868C17.9871 2.21454 17.599 1.83581 17.1336 1.83581ZM3.86547 15.3849H1.30529V13.0634H3.86547V15.3849ZM3.86547 12.4904H1.30529V10.1698H3.86547V12.4904ZM3.86547 9.57768H1.30529V7.25995H3.86547V9.57768ZM7.07352 15.3849H4.51503V13.0634H7.07352V15.3849ZM7.07352 12.4904H4.51503V10.1698H7.07352V12.4904ZM7.07352 9.57768H4.51503V7.25995H7.07352V9.57768ZM10.2812 15.3849H7.72436V13.0634H10.2812V15.3849ZM10.2812 12.4904H7.72436V10.1698H10.2812V12.4904ZM10.2812 9.57768H7.72436V7.25995H10.2812V9.57768ZM13.4896 15.3849H10.9261V13.0634H13.4896V15.3849ZM13.4896 12.4904H10.9261V10.1698H13.4896V12.4904ZM13.4896 9.57768H10.9261V7.25995H13.4896V9.57768ZM16.7015 15.3849H14.143V13.0634H16.7015V15.3849ZM16.7015 12.4904H14.143V10.1698H16.7015V12.4904ZM16.7015 9.57768H14.143V7.25995H16.7015V9.57768ZM16.7015 6.36123H1.30571V2.93434H2.23753V3.87883C2.23753 4.31258 2.5858 4.65667 3.00982 4.65667C3.44314 4.65667 3.7876 4.31258 3.7876 3.87883V2.93434H5.24373V3.87883C5.24373 4.31258 5.58735 4.65667 6.00332 4.65667C6.4358 4.65667 6.77688 4.31258 6.77688 3.87883V2.93434H8.23597V3.87883C8.23597 4.31258 8.57874 4.65667 8.99345 4.65667C9.42804 4.65667 9.76912 4.31258 9.76912 3.87883V2.93434H11.2274V3.87883C11.2274 4.31258 11.571 4.65667 12.0035 4.65667C12.419 4.65667 12.7622 4.31258 12.7622 3.87883V2.93434H14.2188V3.87883C14.2188 4.31258 14.5619 4.65667 14.9957 4.65667C15.4104 4.65667 15.7549 4.31258 15.7549 3.87883V2.93434H16.7007V6.36123H16.7015Z" fill="#386D3D" style="mix-blend-mode:multiply"/>
</svg>
