<svg width="17" height="23" viewBox="0 0 17 23" fill="none" xmlns="http://www.w3.org/2000/svg">
<path d="M5.4442 7.35913C6.50147 6.72916 7.36681 6.15645 7.66413 5.97532C7.96278 5.80218 7.95068 5.35201 7.69602 4.93114C7.44137 4.50494 5.34687 0.995469 5.34687 0.995469C5.01756 0.448072 4.66161 -0.112649 4.15098 0.191016C3.64167 0.494682 3.26169 0.718438 1.94976 1.50024C0.635172 2.28072 -1.10209 6.66922 3.45766 14.3221C8.0254 21.9777 12.7171 22.5397 14.0331 21.7566C15.345 20.9775 15.7263 20.7497 16.233 20.45C16.7436 20.145 16.4223 19.563 16.0943 19.0116C16.0943 19.0116 14.0024 15.5048 13.7478 15.076C13.4958 14.6538 13.1024 14.4313 12.8051 14.6045C12.5091 14.783 11.5958 15.2677 10.5359 15.9004C9.47727 16.5264 8.29742 14.9388 6.76151 12.3576C5.22559 9.77912 4.38426 7.98378 5.4442 7.35913Z" fill="#386D3D" style="mix-blend-mode:multiply"/>
</svg>
