<svg width="22" height="22" viewBox="0 0 22 22" fill="none" xmlns="http://www.w3.org/2000/svg">
<path d="M0.85 10.9991C0.85 16.6114 5.41306 21.15 11.009 21.15C16.6024 21.15 21.1554 16.6112 21.1554 10.9991C21.1554 5.40246 16.603 0.85 11.009 0.85C5.41295 0.85 0.85 5.40179 0.85 10.9991ZM2.43124 10.9991C2.43124 6.27728 6.2701 2.43892 11.009 2.43892C15.7297 2.43892 19.5692 6.27665 19.5692 10.9991C19.5692 15.7348 15.73 19.5723 11.009 19.5723C6.27024 19.5723 2.43124 15.735 2.43124 10.9991Z" fill="#386D3D" stroke="#386D3D" stroke-width="0.3"/>
<path d="M12.0051 11.7564V11.7562V5.77615C12.0051 5.33691 11.6495 4.98281 11.2105 4.98281C10.7733 4.98281 10.4266 5.33954 10.4266 5.77615V10.9633H6.54673C6.11024 10.9633 5.76016 11.3212 5.76016 11.7562C5.76016 12.1922 6.10991 12.5508 6.54673 12.5508H11.2105C11.6501 12.5508 12.0046 12.1944 12.0051 11.7564Z" fill="#386D3D" stroke="#386D3D" stroke-width="0.3"/>
</svg>
