<svg width="29" height="28" viewBox="0 0 29 28" fill="none" xmlns="http://www.w3.org/2000/svg">
<g filter="url(#filter0_d_25_7951)">
<path d="M21.738 0.379883H3.314C1.7628 0.379883 0.5 1.64268 0.5 3.19389V15.0379C0.5 16.5898 1.7628 17.8526 3.314 17.8526H9.05401V20.1199H5.94601C5.48191 20.1199 5.10601 20.4965 5.10601 20.9592C5.10601 21.4226 5.48191 21.7999 5.94601 21.7999H9.05331H15.9987H16.4747C16.9381 21.7999 17.314 21.4226 17.314 20.9592C17.314 20.4965 16.9381 20.1199 16.4747 20.1199H15.9987V17.8519H16.4747C16.9381 17.8519 17.314 17.476 17.314 17.0126C17.314 16.5492 16.9381 16.1719 16.4747 16.1719H15.9987H9.05401H3.314C2.6889 16.1719 2.1807 15.663 2.1807 15.0386V13.2466H16.4747C16.9395 13.2466 17.3154 12.87 17.3154 12.4066C17.3154 11.9432 16.9395 11.5666 16.4747 11.5666H2.18V3.19389C2.18 2.56879 2.6889 2.05989 3.3133 2.05989H21.7366C22.3631 2.05989 22.8713 2.56879 22.8713 3.19389V6.48389C22.8713 6.94799 23.2472 7.32389 23.7106 7.32389C24.1754 7.32389 24.5513 6.94729 24.5513 6.48389V3.19389C24.552 1.64268 23.2899 0.379883 21.738 0.379883ZM14.318 17.8519V20.1192H10.734V17.8519H14.318Z" fill="white"/>
<path d="M26.3444 25.7481H19.7644C18.5765 25.7481 17.6084 24.7807 17.6084 23.5921V10.4321C17.6084 9.24279 18.5765 8.27539 19.7644 8.27539H26.3444C27.5323 8.27539 28.5004 9.24279 28.5004 10.4321V23.5921C28.5004 24.7807 27.533 25.7481 26.3444 25.7481ZM19.7644 9.95609C19.5075 9.95609 19.2884 10.1745 19.2884 10.4321V23.5921C19.2884 23.8504 19.5075 24.0688 19.7644 24.0688H26.3444C26.6013 24.0688 26.8204 23.8504 26.8204 23.5921V10.4321C26.8204 10.1738 26.6013 9.95609 26.3444 9.95609H19.7644Z" fill="white"/>
<path d="M24.0408 12.5882H22.0682C21.6034 12.5882 21.2275 12.2116 21.2275 11.7482C21.2275 11.2848 21.6034 10.9082 22.0682 10.9082H24.0408C24.5056 10.9082 24.8815 11.2848 24.8815 11.7482C24.8822 12.2116 24.5056 12.5882 24.0408 12.5882Z" fill="white"/>
</g>
<defs>
<filter id="filter0_d_25_7951" x="0.5" y="0.379883" width="28" height="27.3682" filterUnits="userSpaceOnUse" color-interpolation-filters="sRGB">
<feFlood flood-opacity="0" result="BackgroundImageFix"/>
<feColorMatrix in="SourceAlpha" type="matrix" values="0 0 0 0 0 0 0 0 0 0 0 0 0 0 0 0 0 0 127 0" result="hardAlpha"/>
<feOffset dy="2"/>
<feColorMatrix type="matrix" values="0 0 0 0 0.870588 0 0 0 0 0.576471 0 0 0 0 0 0 0 0 0.76 0"/>
<feBlend mode="multiply" in2="BackgroundImageFix" result="effect1_dropShadow_25_7951"/>
<feBlend mode="normal" in="SourceGraphic" in2="effect1_dropShadow_25_7951" result="shape"/>
</filter>
</defs>
</svg>
