<svg width="357" height="112" viewBox="0 0 357 112" fill="none" xmlns="http://www.w3.org/2000/svg">
<mask id="path-1-outside-1_25_7914" maskUnits="userSpaceOnUse" x="291.716" y="58.7812" width="66" height="36" fill="black">
<rect fill="white" x="291.716" y="58.7812" width="66" height="36"/>
<path d="M297.2 65.7252V64.6612L299.636 65.7252H317.864V66.5652H299.44V88.1533C299.44 88.4613 298.6 89.0213 297.592 89.0213H297.2V65.7252ZM316.688 65.7252H316.408L317.528 64.3812L320.16 66.3972C319.964 66.6212 319.516 66.8732 318.984 66.9572V85.8573C318.984 87.5093 318.536 88.5733 315.232 88.8813C315.148 88.1813 314.952 87.6493 314.448 87.3133C313.888 86.9773 313.048 86.6972 311.396 86.4732V86.0532C311.396 86.0532 315.176 86.3332 315.904 86.3332C316.52 86.3332 316.688 86.1092 316.688 85.6052V65.7252ZM298.404 75.8332H317.752V76.6172H298.404V75.8332ZM306.832 65.7252H309.072V76.3092H306.832V65.7252ZM333.152 75.0212C330.744 75.0212 328.84 76.0572 327.244 77.7652L326.768 77.3452C328.672 74.6572 331.248 73.3132 333.88 73.3132C335.98 73.3132 337.744 73.9852 339.872 75.2452C342.056 76.5612 343.624 77.2332 345.612 77.2332C348.02 77.2332 349.924 76.1412 351.548 74.4612L351.996 74.8812C350.12 77.5972 347.516 78.9412 344.884 78.9412C342.784 78.9412 341.02 78.2692 338.892 77.0092C336.708 75.6932 335.14 75.0212 333.152 75.0212Z"/>
</mask>
<path d="M297.2 65.7252V64.6612L299.636 65.7252H317.864V66.5652H299.44V88.1533C299.44 88.4613 298.6 89.0213 297.592 89.0213H297.2V65.7252ZM316.688 65.7252H316.408L317.528 64.3812L320.16 66.3972C319.964 66.6212 319.516 66.8732 318.984 66.9572V85.8573C318.984 87.5093 318.536 88.5733 315.232 88.8813C315.148 88.1813 314.952 87.6493 314.448 87.3133C313.888 86.9773 313.048 86.6972 311.396 86.4732V86.0532C311.396 86.0532 315.176 86.3332 315.904 86.3332C316.52 86.3332 316.688 86.1092 316.688 85.6052V65.7252ZM298.404 75.8332H317.752V76.6172H298.404V75.8332ZM306.832 65.7252H309.072V76.3092H306.832V65.7252ZM333.152 75.0212C330.744 75.0212 328.84 76.0572 327.244 77.7652L326.768 77.3452C328.672 74.6572 331.248 73.3132 333.88 73.3132C335.98 73.3132 337.744 73.9852 339.872 75.2452C342.056 76.5612 343.624 77.2332 345.612 77.2332C348.02 77.2332 349.924 76.1412 351.548 74.4612L351.996 74.8812C350.12 77.5972 347.516 78.9412 344.884 78.9412C342.784 78.9412 341.02 78.2692 338.892 77.0092C336.708 75.6932 335.14 75.0212 333.152 75.0212Z" fill="white"/>
<path d="M297.2 64.6612L299.121 60.2625C297.637 59.6144 295.926 59.7581 294.571 60.6449C293.216 61.5317 292.4 63.0419 292.4 64.6612H297.2ZM299.636 65.7252L297.715 70.124C298.32 70.3886 298.975 70.5252 299.636 70.5252V65.7252ZM317.864 65.7252H322.664C322.664 63.0743 320.515 60.9252 317.864 60.9252V65.7252ZM317.864 66.5652V71.3652C320.515 71.3652 322.664 69.2162 322.664 66.5652H317.864ZM299.44 66.5652V61.7652C296.789 61.7652 294.64 63.9143 294.64 66.5652H299.44ZM297.2 89.0212H292.4C292.4 91.6722 294.549 93.8213 297.2 93.8213L297.2 89.0212ZM316.688 65.7252H321.488C321.488 63.0743 319.339 60.9252 316.688 60.9252V65.7252ZM316.408 65.7252L312.72 62.6524C311.528 64.0832 311.271 66.0745 312.061 67.7612C312.851 69.4478 314.545 70.5252 316.408 70.5252V65.7252ZM317.528 64.3812L320.447 60.5706C318.403 59.0053 315.488 59.3308 313.84 61.3084L317.528 64.3812ZM320.16 66.3972L323.772 69.5581C324.646 68.5591 325.068 67.2429 324.936 65.922C324.805 64.6012 324.132 63.3938 323.079 62.5866L320.16 66.3972ZM318.984 66.9572L318.235 62.216C315.902 62.5844 314.184 64.5953 314.184 66.9572H318.984ZM315.232 88.8813L310.466 89.4532C310.776 92.0361 313.087 93.902 315.677 93.6605L315.232 88.8813ZM314.448 87.3132L317.11 83.3194C317.047 83.2772 316.983 83.2365 316.917 83.1973L314.448 87.3132ZM311.396 86.4732H306.596C306.596 88.875 308.371 90.907 310.751 91.2297L311.396 86.4732ZM311.396 86.0532L311.75 81.2664C310.419 81.1678 309.107 81.6278 308.129 82.536C307.152 83.4442 306.596 84.7186 306.596 86.0532H311.396ZM298.404 75.8332V71.0332C295.753 71.0332 293.604 73.1823 293.604 75.8332H298.404ZM317.752 75.8332H322.552C322.552 73.1823 320.403 71.0332 317.752 71.0332V75.8332ZM317.752 76.6173V81.4172C320.403 81.4172 322.552 79.2682 322.552 76.6173H317.752ZM298.404 76.6173H293.604C293.604 79.2682 295.753 81.4172 298.404 81.4172V76.6173ZM306.832 65.7252V60.9252C304.181 60.9252 302.032 63.0743 302.032 65.7252H306.832ZM309.072 65.7252H313.872C313.872 63.0743 311.723 60.9252 309.072 60.9252V65.7252ZM309.072 76.3092V81.1092C311.723 81.1092 313.872 78.9602 313.872 76.3092H309.072ZM306.832 76.3092H302.032C302.032 78.9602 304.181 81.1092 306.832 81.1092V76.3092ZM302 65.7252V64.6612H292.4V65.7252H302ZM295.279 69.06L297.715 70.124L301.557 61.3265L299.121 60.2625L295.279 69.06ZM299.636 70.5252H317.864V60.9252H299.636V70.5252ZM313.064 65.7252V66.5652H322.664V65.7252H313.064ZM317.864 61.7652H299.44V71.3652H317.864V61.7652ZM294.64 66.5652V88.1532H304.24V66.5652H294.64ZM294.64 88.1532C294.64 87.1223 294.979 86.3546 295.208 85.944C295.448 85.5121 295.709 85.2172 295.875 85.0482C296.207 84.7122 296.499 84.5395 296.642 84.4638C296.939 84.3059 297.245 84.2213 297.592 84.2213V93.8213C298.946 93.8213 300.176 93.4566 301.146 92.9417C301.624 92.6875 302.19 92.3171 302.71 91.7894C303.032 91.4636 304.24 90.1927 304.24 88.1532H294.64ZM297.592 84.2213H297.2V93.8213H297.592V84.2213ZM302 89.0212V65.7252H292.4V89.0212H302ZM316.688 60.9252H316.408V70.5252H316.688V60.9252ZM320.095 68.7981L321.215 67.4541L313.84 61.3084L312.72 62.6524L320.095 68.7981ZM314.609 68.1919L317.241 70.2079L323.079 62.5866L320.447 60.5706L314.609 68.1919ZM316.547 63.2364C316.787 62.9629 317.008 62.7846 317.151 62.6808C317.304 62.5699 317.44 62.4919 317.551 62.4365C317.765 62.3294 317.99 62.2547 318.235 62.216L319.732 71.6985C321.086 71.4848 322.664 70.8244 323.772 69.5581L316.547 63.2364ZM314.184 66.9572V85.8573H323.784V66.9572H314.184ZM314.184 85.8573C314.184 86.1013 314.16 85.9754 314.237 85.6981C314.338 85.3374 314.569 84.8524 314.999 84.4336C315.39 84.0533 315.719 83.9492 315.694 83.9574C315.654 83.9709 315.397 84.045 314.786 84.102L315.677 93.6605C317.558 93.4852 319.931 93.0298 321.695 91.3129C323.688 89.3724 323.784 86.954 323.784 85.8573H314.184ZM319.998 88.3093C319.854 87.1147 319.368 84.8247 317.11 83.3194L311.785 91.3071C311.24 90.9434 310.862 90.4499 310.648 89.9906C310.47 89.6089 310.455 89.3578 310.466 89.4532L319.998 88.3093ZM316.917 83.1973C315.522 82.3603 313.915 81.9709 312.041 81.7168L310.751 91.2297C311.436 91.3226 311.814 91.4094 312.004 91.4641C312.172 91.5124 312.122 91.5157 311.978 91.4292L316.917 83.1973ZM316.196 86.4732V86.0532H306.596V86.4732H316.196ZM311.396 86.0532C311.041 90.8401 311.041 90.8401 311.041 90.8401C311.041 90.8401 311.041 90.8402 311.042 90.8402C311.042 90.8402 311.042 90.8402 311.042 90.8402C311.043 90.8402 311.044 90.8403 311.045 90.8404C311.047 90.8405 311.049 90.8407 311.053 90.841C311.061 90.8416 311.072 90.8424 311.086 90.8434C311.115 90.8456 311.157 90.8486 311.21 90.8525C311.316 90.8603 311.469 90.8714 311.654 90.8847C312.024 90.9112 312.526 90.9467 313.053 90.9823C313.993 91.0458 315.333 91.1333 315.904 91.1333V81.5332C315.926 81.5332 315.878 81.5332 315.713 81.5259C315.569 81.5195 315.385 81.5099 315.168 81.4974C314.734 81.4725 314.212 81.4387 313.7 81.4042C313.191 81.3698 312.703 81.3353 312.341 81.3093C312.161 81.2964 312.012 81.2856 311.909 81.278C311.858 81.2743 311.818 81.2713 311.791 81.2693C311.777 81.2683 311.767 81.2676 311.76 81.2671C311.757 81.2668 311.754 81.2666 311.753 81.2665C311.752 81.2665 311.751 81.2664 311.751 81.2664C311.751 81.2664 311.751 81.2664 311.75 81.2664C311.75 81.2664 311.75 81.2664 311.75 81.2664C311.75 81.2664 311.75 81.2664 311.396 86.0532ZM315.904 91.1333C316.555 91.1333 318.408 91.0652 319.921 89.5524C321.453 88.0208 321.488 86.152 321.488 85.6052H311.888C311.888 85.5625 311.839 84.0577 313.133 82.7641C314.408 81.4893 315.869 81.5332 315.904 81.5332V91.1333ZM321.488 85.6052V65.7252H311.888V85.6052H321.488ZM298.404 80.6332H317.752V71.0332H298.404V80.6332ZM312.952 75.8332V76.6173H322.552V75.8332H312.952ZM317.752 71.8172H298.404V81.4172H317.752V71.8172ZM303.204 76.6173V75.8332H293.604V76.6173H303.204ZM306.832 70.5252H309.072V60.9252H306.832V70.5252ZM304.272 65.7252V76.3092H313.872V65.7252H304.272ZM309.072 71.5092H306.832V81.1092H309.072V71.5092ZM311.632 76.3092V65.7252H302.032V76.3092H311.632ZM327.244 77.7652L324.068 81.3645C326.016 83.0831 328.977 82.9404 330.751 81.0424L327.244 77.7652ZM326.768 77.3452L322.851 74.5708C321.433 76.5726 321.753 79.3214 323.592 80.9445L326.768 77.3452ZM339.872 75.2452L342.349 71.1339C342.339 71.1276 342.328 71.1213 342.317 71.115L339.872 75.2452ZM351.548 74.4612L354.831 70.9595C352.918 69.1659 349.919 69.2397 348.097 71.1251L351.548 74.4612ZM351.996 74.8813L355.945 77.6092C357.296 75.6539 357.012 73.0048 355.279 71.3795L351.996 74.8813ZM338.892 77.0093L336.414 81.1206C336.425 81.1269 336.436 81.1332 336.446 81.1395L338.892 77.0093ZM333.152 70.2212C329.142 70.2212 326.036 72.0276 323.737 74.4881L330.751 81.0424C331.644 80.0869 332.346 79.8212 333.152 79.8212V70.2212ZM330.42 74.166L329.944 73.746L323.592 80.9445L324.068 81.3645L330.42 74.166ZM330.685 80.1197C331.815 78.5247 333.01 78.1132 333.88 78.1132V68.5132C329.485 68.5132 325.529 70.7898 322.851 74.5708L330.685 80.1197ZM333.88 78.1132C334.783 78.1132 335.682 78.3428 337.426 79.3755L342.317 71.115C339.805 69.6277 337.177 68.5132 333.88 68.5132V78.1132ZM337.394 79.3566C339.821 80.8188 342.306 82.0332 345.612 82.0332V72.4332C344.941 72.4332 344.29 72.3037 342.349 71.1339L337.394 79.3566ZM345.612 82.0332C349.689 82.0332 352.763 80.1105 354.999 77.7974L348.097 71.1251C347.085 72.172 346.351 72.4332 345.612 72.4332V82.0332ZM348.265 77.963L348.713 78.383L355.279 71.3795L354.831 70.9595L348.265 77.963ZM348.046 72.1533C346.964 73.7204 345.767 74.1412 344.884 74.1412V83.7413C349.265 83.7413 353.276 81.4741 355.945 77.6092L348.046 72.1533ZM344.884 74.1412C343.981 74.1412 343.081 73.9117 341.337 72.879L336.446 81.1395C338.958 82.6268 341.587 83.7413 344.884 83.7413V74.1412ZM341.369 72.8979C338.942 71.4357 336.457 70.2212 333.152 70.2212V79.8212C333.822 79.8212 334.473 79.9508 336.414 81.1206L341.369 72.8979Z" fill="white" mask="url(#path-1-outside-1_25_7914)"/>
<mask id="path-3-outside-2_25_7914" maskUnits="userSpaceOnUse" x="295.716" y="62.7812" width="58" height="28" fill="black">
<rect fill="white" x="295.716" y="62.7812" width="58" height="28"/>
<path d="M297.2 65.7252V64.6612L299.636 65.7252H317.864V66.5652H299.44V88.1533C299.44 88.4613 298.6 89.0213 297.592 89.0213H297.2V65.7252ZM316.688 65.7252H316.408L317.528 64.3812L320.16 66.3972C319.964 66.6212 319.516 66.8732 318.984 66.9572V85.8573C318.984 87.5093 318.536 88.5733 315.232 88.8813C315.148 88.1813 314.952 87.6493 314.448 87.3133C313.888 86.9773 313.048 86.6972 311.396 86.4732V86.0532C311.396 86.0532 315.176 86.3332 315.904 86.3332C316.52 86.3332 316.688 86.1092 316.688 85.6052V65.7252ZM298.404 75.8332H317.752V76.6172H298.404V75.8332ZM306.832 65.7252H309.072V76.3092H306.832V65.7252ZM333.152 75.0212C330.744 75.0212 328.84 76.0572 327.244 77.7652L326.768 77.3452C328.672 74.6572 331.248 73.3132 333.88 73.3132C335.98 73.3132 337.744 73.9852 339.872 75.2452C342.056 76.5612 343.624 77.2332 345.612 77.2332C348.02 77.2332 349.924 76.1412 351.548 74.4612L351.996 74.8812C350.12 77.5972 347.516 78.9412 344.884 78.9412C342.784 78.9412 341.02 78.2692 338.892 77.0092C336.708 75.6932 335.14 75.0212 333.152 75.0212Z"/>
</mask>
<path d="M297.2 65.7252V64.6612L299.636 65.7252H317.864V66.5652H299.44V88.1533C299.44 88.4613 298.6 89.0213 297.592 89.0213H297.2V65.7252ZM316.688 65.7252H316.408L317.528 64.3812L320.16 66.3972C319.964 66.6212 319.516 66.8732 318.984 66.9572V85.8573C318.984 87.5093 318.536 88.5733 315.232 88.8813C315.148 88.1813 314.952 87.6493 314.448 87.3133C313.888 86.9773 313.048 86.6972 311.396 86.4732V86.0532C311.396 86.0532 315.176 86.3332 315.904 86.3332C316.52 86.3332 316.688 86.1092 316.688 85.6052V65.7252ZM298.404 75.8332H317.752V76.6172H298.404V75.8332ZM306.832 65.7252H309.072V76.3092H306.832V65.7252ZM333.152 75.0212C330.744 75.0212 328.84 76.0572 327.244 77.7652L326.768 77.3452C328.672 74.6572 331.248 73.3132 333.88 73.3132C335.98 73.3132 337.744 73.9852 339.872 75.2452C342.056 76.5612 343.624 77.2332 345.612 77.2332C348.02 77.2332 349.924 76.1412 351.548 74.4612L351.996 74.8812C350.12 77.5972 347.516 78.9412 344.884 78.9412C342.784 78.9412 341.02 78.2692 338.892 77.0092C336.708 75.6932 335.14 75.0212 333.152 75.0212Z" fill="#B89038"/>
<path d="M297.2 64.6612L297.6 63.7449C297.291 63.6098 296.935 63.6398 296.652 63.8245C296.37 64.0093 296.2 64.3239 296.2 64.6612H297.2ZM299.636 65.7252L299.236 66.6416C299.362 66.6968 299.498 66.7252 299.636 66.7252V65.7252ZM317.864 65.7252H318.864C318.864 65.173 318.416 64.7252 317.864 64.7252V65.7252ZM317.864 66.5652V67.5652C318.416 67.5652 318.864 67.1175 318.864 66.5652H317.864ZM299.44 66.5652V65.5652C298.888 65.5652 298.44 66.013 298.44 66.5652H299.44ZM297.2 89.0212H296.2C296.2 89.5735 296.648 90.0212 297.2 90.0212V89.0212ZM316.688 65.7252H317.688C317.688 65.173 317.24 64.7252 316.688 64.7252V65.7252ZM316.408 65.7252L315.64 65.0851C315.391 65.3831 315.338 65.798 315.502 66.1494C315.667 66.5008 316.02 66.7252 316.408 66.7252V65.7252ZM317.528 64.3812L318.136 63.5874C317.71 63.2613 317.103 63.3291 316.76 63.7411L317.528 64.3812ZM320.16 66.3972L320.912 67.0558C321.094 66.8476 321.182 66.5734 321.155 66.2982C321.128 66.0231 320.987 65.7715 320.768 65.6034L320.16 66.3972ZM318.984 66.9572L318.828 65.9695C318.342 66.0462 317.984 66.4652 317.984 66.9572H318.984ZM315.232 88.8813L314.239 89.0004C314.304 89.5385 314.785 89.9272 315.325 89.8769L315.232 88.8813ZM314.448 87.3132L315.003 86.4812C314.989 86.4724 314.976 86.4639 314.962 86.4558L314.448 87.3132ZM311.396 86.4732H310.396C310.396 86.9736 310.766 87.397 311.261 87.4642L311.396 86.4732ZM311.396 86.0532L311.47 85.056C311.192 85.0354 310.919 85.1313 310.715 85.3205C310.512 85.5097 310.396 85.7752 310.396 86.0532H311.396ZM298.404 75.8332V74.8332C297.852 74.8332 297.404 75.281 297.404 75.8332H298.404ZM317.752 75.8332H318.752C318.752 75.281 318.304 74.8332 317.752 74.8332V75.8332ZM317.752 76.6173V77.6173C318.304 77.6173 318.752 77.1695 318.752 76.6173H317.752ZM298.404 76.6173H297.404C297.404 77.1695 297.852 77.6173 298.404 77.6173V76.6173ZM306.832 65.7252V64.7252C306.28 64.7252 305.832 65.173 305.832 65.7252H306.832ZM309.072 65.7252H310.072C310.072 65.173 309.624 64.7252 309.072 64.7252V65.7252ZM309.072 76.3092V77.3092C309.624 77.3092 310.072 76.8615 310.072 76.3092H309.072ZM306.832 76.3092H305.832C305.832 76.8615 306.28 77.3092 306.832 77.3092V76.3092ZM298.2 65.7252V64.6612H296.2V65.7252H298.2ZM296.8 65.5776L299.236 66.6416L300.036 64.8089L297.6 63.7449L296.8 65.5776ZM299.636 66.7252H317.864V64.7252H299.636V66.7252ZM316.864 65.7252V66.5652H318.864V65.7252H316.864ZM317.864 65.5652H299.44V67.5652H317.864V65.5652ZM298.44 66.5652V88.1532H300.44V66.5652H298.44ZM298.44 88.1532C298.44 87.9689 298.5 87.8426 298.528 87.7925C298.544 87.7635 298.558 87.7438 298.567 87.7331C298.575 87.7221 298.581 87.7168 298.581 87.7166C298.581 87.7163 298.578 87.7195 298.571 87.7256C298.563 87.7317 298.553 87.7399 298.539 87.7497C298.511 87.7697 298.473 87.7938 298.425 87.8196C298.221 87.928 297.919 88.0212 297.592 88.0212V90.0212C298.273 90.0212 298.895 89.8345 299.363 89.5859C299.596 89.4622 299.822 89.3068 300.005 89.121C300.147 88.9773 300.44 88.6391 300.44 88.1532H298.44ZM297.592 88.0212H297.2V90.0212H297.592V88.0212ZM298.2 89.0212V65.7252H296.2V89.0212H298.2ZM316.688 64.7252H316.408V66.7252H316.688V64.7252ZM317.176 66.3654L318.296 65.0214L316.76 63.7411L315.64 65.0851L317.176 66.3654ZM316.92 65.1751L319.552 67.1911L320.768 65.6034L318.136 63.5874L316.92 65.1751ZM319.407 65.7387C319.42 65.7241 319.378 65.7718 319.251 65.8353C319.135 65.8934 318.987 65.9443 318.828 65.9695L319.14 67.945C319.843 67.834 320.526 67.4969 320.912 67.0558L319.407 65.7387ZM317.984 66.9572V85.8573H319.984V66.9572H317.984ZM317.984 85.8573C317.984 86.6268 317.868 86.9435 317.649 87.1567C317.382 87.4164 316.743 87.736 315.139 87.8856L315.325 89.8769C317.024 89.7185 318.261 89.3521 319.044 88.5898C319.875 87.781 319.984 86.7397 319.984 85.8573H317.984ZM316.225 88.7621C316.128 87.9591 315.872 87.0608 315.003 86.4812L313.893 88.1453C314.032 88.2377 314.167 88.4034 314.239 89.0004L316.225 88.7621ZM314.962 86.4558C314.228 86.0154 313.228 85.7126 311.53 85.4823L311.261 87.4642C312.867 87.6819 313.547 87.9391 313.933 88.1707L314.962 86.4558ZM312.396 86.4732V86.0532H310.396V86.4732H312.396ZM311.396 86.0532C311.322 87.0505 311.322 87.0505 311.322 87.0505C311.322 87.0505 311.322 87.0505 311.322 87.0505C311.322 87.0505 311.322 87.0506 311.323 87.0506C311.323 87.0506 311.324 87.0507 311.325 87.0507C311.327 87.0509 311.329 87.0511 311.333 87.0513C311.34 87.0519 311.351 87.0527 311.365 87.0537C311.393 87.0558 311.434 87.0588 311.487 87.0626C311.592 87.0703 311.743 87.0813 311.926 87.0944C312.293 87.1207 312.79 87.1559 313.309 87.191C314.325 87.2596 315.497 87.3333 315.904 87.3333V85.3333C315.583 85.3333 314.5 85.2669 313.444 85.1955C312.928 85.1606 312.434 85.1258 312.069 85.0996C311.887 85.0865 311.737 85.0756 311.633 85.0679C311.58 85.0641 311.54 85.0611 311.512 85.0591C311.498 85.0581 311.487 85.0573 311.48 85.0568C311.477 85.0565 311.474 85.0563 311.472 85.0562C311.471 85.0561 311.471 85.0561 311.47 85.056C311.47 85.056 311.47 85.056 311.47 85.056C311.47 85.056 311.47 85.056 311.47 85.056C311.47 85.056 311.47 85.056 311.396 86.0532ZM315.904 87.3333C316.283 87.3333 316.825 87.2747 317.234 86.8654C317.647 86.4521 317.688 85.9187 317.688 85.6052H315.688C315.688 85.6837 315.68 85.6933 315.688 85.6654C315.699 85.6272 315.733 85.5383 315.82 85.4511C315.906 85.3649 315.99 85.335 316.015 85.3279C316.031 85.3233 316.004 85.3333 315.904 85.3333V87.3333ZM317.688 85.6052V65.7252H315.688V85.6052H317.688ZM298.404 76.8332H317.752V74.8332H298.404V76.8332ZM316.752 75.8332V76.6173H318.752V75.8332H316.752ZM317.752 75.6173H298.404V77.6173H317.752V75.6173ZM299.404 76.6173V75.8332H297.404V76.6173H299.404ZM306.832 66.7252H309.072V64.7252H306.832V66.7252ZM308.072 65.7252V76.3092H310.072V65.7252H308.072ZM309.072 75.3092H306.832V77.3092H309.072V75.3092ZM307.832 76.3092V65.7252H305.832V76.3092H307.832ZM327.244 77.7652L326.582 78.5151C326.988 78.8731 327.605 78.8434 327.974 78.448L327.244 77.7652ZM326.768 77.3452L325.952 76.7672C325.656 77.1843 325.723 77.757 326.106 78.0951L326.768 77.3452ZM339.872 75.2452L340.388 74.3887L340.381 74.3848L339.872 75.2452ZM351.548 74.4612L352.232 73.7317C351.833 73.3581 351.209 73.3734 350.829 73.7662L351.548 74.4612ZM351.996 74.8813L352.819 75.4496C353.1 75.0422 353.041 74.4903 352.68 74.1517L351.996 74.8813ZM338.892 77.0093L338.376 77.8658L338.382 77.8697L338.892 77.0093ZM333.152 74.0212C330.41 74.0212 328.256 75.2177 326.513 77.0825L327.974 78.448C329.424 76.8968 331.078 76.0212 333.152 76.0212V74.0212ZM327.905 77.0154L327.429 76.5954L326.106 78.0951L326.582 78.5151L327.905 77.0154ZM327.584 77.9233C329.327 75.463 331.615 74.3132 333.88 74.3132V72.3132C330.881 72.3132 328.017 73.8515 325.952 76.7672L327.584 77.9233ZM333.88 74.3132C335.73 74.3132 337.314 74.8931 339.362 76.1057L340.381 74.3848C338.173 73.0774 336.229 72.3132 333.88 72.3132V74.3132ZM339.356 76.1018C341.59 77.4482 343.349 78.2332 345.612 78.2332V76.2332C343.898 76.2332 342.521 75.6743 340.388 74.3887L339.356 76.1018ZM345.612 78.2332C348.368 78.2332 350.515 76.9682 352.267 75.1563L350.829 73.7662C349.332 75.3143 347.672 76.2332 345.612 76.2332V78.2332ZM350.864 75.1908L351.312 75.6108L352.68 74.1517L352.232 73.7317L350.864 75.1908ZM351.173 74.3129C349.462 76.7896 347.151 77.9412 344.884 77.9412V79.9412C347.88 79.9412 350.777 78.4049 352.819 75.4496L351.173 74.3129ZM344.884 77.9412C343.033 77.9412 341.449 77.3614 339.401 76.1488L338.382 77.8697C340.59 79.1771 342.534 79.9412 344.884 79.9412V77.9412ZM339.408 76.1527C337.173 74.8063 335.414 74.0212 333.152 74.0212V76.0212C334.865 76.0212 336.242 76.5802 338.376 77.8658L339.408 76.1527Z" fill="#B89038" mask="url(#path-3-outside-2_25_7914)"/>
<g style="mix-blend-mode:overlay">
<mask id="path-5-outside-3_25_7914" maskUnits="userSpaceOnUse" x="293.716" y="60.7812" width="58" height="28" fill="black">
<rect fill="white" x="293.716" y="60.7812" width="58" height="28"/>
<path d="M307.128 73.8052H314.716V64.5372H307.128V73.8052ZM297.468 64.5372V73.8052H304.86V64.5372H297.468ZM315.556 62.3812L318.188 64.3692C317.992 64.5932 317.544 64.8452 316.984 64.9572V83.8292C316.984 85.5093 316.564 86.5453 313.26 86.8533C313.148 86.1533 312.98 85.6493 312.476 85.3133C311.916 84.9493 311.076 84.6692 309.452 84.4732V84.0252C309.452 84.0252 313.204 84.3052 313.932 84.3052C314.548 84.3052 314.716 84.0812 314.716 83.6052V74.6172H297.468V86.1253C297.468 86.4333 296.6 86.9933 295.62 86.9933H295.228V62.6332L297.664 63.7532H314.436L315.556 62.3812ZM336.92 74.9812C334.708 73.6932 333.168 72.9932 331.18 72.9932C328.772 72.9932 326.868 74.0572 325.244 75.7372L324.796 75.3452C326.7 72.6292 329.248 71.2852 331.908 71.2852C333.98 71.2852 335.772 71.9852 337.872 73.2452C340.084 74.5332 341.624 75.2332 343.612 75.2332C346.02 75.2332 347.924 74.1412 349.548 72.4612L349.996 72.8812C348.148 75.5692 345.544 76.9412 342.884 76.9412C340.812 76.9412 339.02 76.2412 336.92 74.9812Z"/>
</mask>
<path d="M307.128 73.8052H314.716V64.5372H307.128V73.8052ZM297.468 64.5372V73.8052H304.86V64.5372H297.468ZM315.556 62.3812L318.188 64.3692C317.992 64.5932 317.544 64.8452 316.984 64.9572V83.8292C316.984 85.5093 316.564 86.5453 313.26 86.8533C313.148 86.1533 312.98 85.6493 312.476 85.3133C311.916 84.9493 311.076 84.6692 309.452 84.4732V84.0252C309.452 84.0252 313.204 84.3052 313.932 84.3052C314.548 84.3052 314.716 84.0812 314.716 83.6052V74.6172H297.468V86.1253C297.468 86.4333 296.6 86.9933 295.62 86.9933H295.228V62.6332L297.664 63.7532H314.436L315.556 62.3812ZM336.92 74.9812C334.708 73.6932 333.168 72.9932 331.18 72.9932C328.772 72.9932 326.868 74.0572 325.244 75.7372L324.796 75.3452C326.7 72.6292 329.248 71.2852 331.908 71.2852C333.98 71.2852 335.772 71.9852 337.872 73.2452C340.084 74.5332 341.624 75.2332 343.612 75.2332C346.02 75.2332 347.924 74.1412 349.548 72.4612L349.996 72.8812C348.148 75.5692 345.544 76.9412 342.884 76.9412C340.812 76.9412 339.02 76.2412 336.92 74.9812Z" fill="#D8A838"/>
<path d="M307.128 73.8053H306.128C306.128 74.3575 306.576 74.8053 307.128 74.8053V73.8053ZM314.716 73.8053V74.8053C315.268 74.8053 315.716 74.3575 315.716 73.8053H314.716ZM314.716 64.5372H315.716C315.716 63.985 315.268 63.5372 314.716 63.5372V64.5372ZM307.128 64.5372V63.5372C306.576 63.5372 306.128 63.985 306.128 64.5372H307.128ZM297.468 64.5372V63.5372C296.916 63.5372 296.468 63.985 296.468 64.5372H297.468ZM297.468 73.8053H296.468C296.468 74.3575 296.916 74.8053 297.468 74.8053V73.8053ZM304.86 73.8053V74.8053C305.412 74.8053 305.86 74.3575 305.86 73.8053H304.86ZM304.86 64.5372H305.86C305.86 63.985 305.412 63.5372 304.86 63.5372V64.5372ZM315.556 62.3812L316.159 61.5833C315.73 61.2593 315.121 61.3324 314.781 61.7489L315.556 62.3812ZM318.188 64.3692L318.94 65.0278C319.123 64.8188 319.211 64.5431 319.183 64.2669C319.154 63.9906 319.012 63.7387 318.791 63.5713L318.188 64.3692ZM316.984 64.9572L316.788 63.9767C316.32 64.0702 315.984 64.4806 315.984 64.9572H316.984ZM313.26 86.8533L312.272 87.0112C312.356 87.5314 312.828 87.8978 313.353 87.8489L313.26 86.8533ZM312.476 85.3132L313.031 84.4811L313.021 84.4748L312.476 85.3132ZM309.452 84.4732H308.452C308.452 84.9792 308.83 85.4054 309.332 85.466L309.452 84.4732ZM309.452 84.0252L309.526 83.028C309.249 83.0073 308.975 83.1031 308.772 83.2923C308.568 83.4815 308.452 83.7471 308.452 84.0252H309.452ZM314.716 74.6173H315.716C315.716 74.065 315.268 73.6173 314.716 73.6173V74.6173ZM297.468 74.6173V73.6173C296.916 73.6173 296.468 74.065 296.468 74.6173H297.468ZM295.228 86.9932H294.228C294.228 87.5455 294.676 87.9932 295.228 87.9932V86.9932ZM295.228 62.6332L295.646 61.7247C295.336 61.5823 294.975 61.6074 294.688 61.7913C294.401 61.9752 294.228 62.2925 294.228 62.6332H295.228ZM297.664 63.7532L297.246 64.6618C297.377 64.7221 297.52 64.7532 297.664 64.7532V63.7532ZM314.436 63.7532V64.7532C314.736 64.7532 315.021 64.6183 315.21 64.3856L314.436 63.7532ZM307.128 74.8053H314.716V72.8053H307.128V74.8053ZM315.716 73.8053V64.5372H313.716V73.8053H315.716ZM314.716 63.5372H307.128V65.5372H314.716V63.5372ZM306.128 64.5372V73.8053H308.128V64.5372H306.128ZM296.468 64.5372V73.8053H298.468V64.5372H296.468ZM297.468 74.8053H304.86V72.8053H297.468V74.8053ZM305.86 73.8053V64.5372H303.86V73.8053H305.86ZM304.86 63.5372H297.468V65.5372H304.86V63.5372ZM314.953 63.1792L317.585 65.1672L318.791 63.5713L316.159 61.5833L314.953 63.1792ZM317.435 63.7107C317.448 63.6959 317.405 63.7446 317.269 63.8139C317.144 63.8772 316.979 63.9384 316.788 63.9767L317.18 65.9378C317.875 65.7988 318.553 65.4703 318.94 65.0278L317.435 63.7107ZM315.984 64.9572V83.8293H317.984V64.9572H315.984ZM315.984 83.8293C315.984 84.6264 315.87 84.9363 315.661 85.1414C315.404 85.3933 314.778 85.7074 313.167 85.8576L313.353 87.8489C315.046 87.6911 316.282 87.3332 317.061 86.5701C317.887 85.7602 317.984 84.7121 317.984 83.8293H315.984ZM314.247 86.6953C314.127 85.9431 313.904 85.0635 313.031 84.4812L311.921 86.1453C312.007 86.2027 312.06 86.2647 312.108 86.369C312.168 86.497 312.221 86.6883 312.272 87.0112L314.247 86.6953ZM313.021 84.4748C312.268 83.9853 311.245 83.6824 309.572 83.4805L309.332 85.466C310.907 85.6561 311.564 85.9132 311.931 86.1517L313.021 84.4748ZM310.452 84.4732V84.0252H308.452V84.4732H310.452ZM309.452 84.0252C309.377 85.0225 309.377 85.0225 309.377 85.0225C309.377 85.0225 309.378 85.0225 309.378 85.0225C309.378 85.0225 309.378 85.0225 309.378 85.0225C309.379 85.0226 309.379 85.0226 309.38 85.0227C309.382 85.0228 309.385 85.023 309.388 85.0233C309.396 85.0238 309.406 85.0246 309.42 85.0257C309.448 85.0277 309.489 85.0307 309.541 85.0346C309.645 85.0423 309.795 85.0532 309.977 85.0664C310.341 85.0927 310.835 85.1278 311.351 85.1629C312.36 85.2316 313.525 85.3053 313.932 85.3053V83.3053C313.611 83.3053 312.536 83.2389 311.487 83.1676C310.974 83.1327 310.484 83.0978 310.122 83.0716C309.94 83.0585 309.792 83.0476 309.688 83.04C309.636 83.0362 309.596 83.0332 309.568 83.0311C309.554 83.0301 309.544 83.0293 309.537 83.0288C309.533 83.0285 309.531 83.0283 309.529 83.0282C309.528 83.0282 309.527 83.0281 309.527 83.0281C309.527 83.0281 309.526 83.028 309.526 83.028C309.526 83.028 309.526 83.028 309.526 83.028C309.526 83.028 309.526 83.028 309.452 84.0252ZM313.932 85.3053C314.313 85.3053 314.845 85.2461 315.251 84.8513C315.67 84.4445 315.716 83.9171 315.716 83.6052H313.716C313.716 83.6731 313.709 83.6738 313.719 83.6382C313.733 83.5917 313.77 83.5015 313.858 83.4162C313.944 83.333 314.025 83.3052 314.047 83.2993C314.061 83.2954 314.032 83.3053 313.932 83.3053V85.3053ZM315.716 83.6052V74.6173H313.716V83.6052H315.716ZM314.716 73.6173H297.468V75.6173H314.716V73.6173ZM296.468 74.6173V86.1252H298.468V74.6173H296.468ZM296.468 86.1252C296.468 85.9337 296.533 85.8034 296.561 85.754C296.592 85.6997 296.617 85.6764 296.613 85.6805C296.604 85.689 296.553 85.7332 296.446 85.7896C296.233 85.9017 295.929 85.9932 295.62 85.9932V87.9932C296.29 87.9932 296.911 87.8048 297.377 87.5599C297.609 87.4378 297.836 87.2843 298.021 87.1011C298.16 86.9634 298.468 86.6222 298.468 86.1252H296.468ZM295.62 85.9932H295.228V87.9932H295.62V85.9932ZM296.228 86.9932V62.6332H294.228V86.9932H296.228ZM294.81 63.5418L297.246 64.6618L298.082 62.8447L295.646 61.7247L294.81 63.5418ZM297.664 64.7532H314.436V62.7532H297.664V64.7532ZM315.21 64.3856L316.33 63.0136L314.781 61.7489L313.661 63.1209L315.21 64.3856ZM336.92 74.9812L337.434 74.1237L337.423 74.1171L336.92 74.9812ZM325.244 75.7372L324.585 76.4898C324.986 76.8408 325.592 76.8155 325.963 76.4323L325.244 75.7372ZM324.796 75.3452L323.977 74.7712C323.684 75.1895 323.753 75.7615 324.137 76.0978L324.796 75.3452ZM337.872 73.2452L337.357 74.1028L337.369 74.1094L337.872 73.2452ZM349.548 72.4612L350.232 71.7317C349.833 71.3581 349.209 71.3734 348.829 71.7662L349.548 72.4612ZM349.996 72.8813L350.82 73.4478C351.1 73.0405 351.04 72.4897 350.68 72.1517L349.996 72.8813ZM337.423 74.1171C335.183 72.8131 333.448 71.9932 331.18 71.9932V73.9932C332.888 73.9932 334.232 74.5734 336.417 75.8454L337.423 74.1171ZM331.18 71.9932C328.431 71.9932 326.283 73.2236 324.525 75.0422L325.963 76.4323C327.453 74.8909 329.112 73.9932 331.18 73.9932V71.9932ZM325.902 74.9847L325.454 74.5927L324.137 76.0978L324.585 76.4898L325.902 74.9847ZM325.615 75.9193C327.358 73.4318 329.618 72.2852 331.908 72.2852V70.2852C328.877 70.2852 326.041 71.8267 323.977 74.7712L325.615 75.9193ZM331.908 72.2852C333.724 72.2852 335.334 72.8885 337.357 74.1027L338.386 72.3878C336.21 71.082 334.235 70.2852 331.908 70.2852V72.2852ZM337.369 74.1094C339.608 75.4134 341.344 76.2332 343.612 76.2332V74.2332C341.904 74.2332 340.559 73.6531 338.375 72.3811L337.369 74.1094ZM343.612 76.2332C346.368 76.2332 348.515 74.9682 350.267 73.1563L348.829 71.7662C347.332 73.3143 345.672 74.2332 343.612 74.2332V76.2332ZM348.864 73.1908L349.312 73.6108L350.68 72.1517L350.232 71.7317L348.864 73.1908ZM349.172 72.3147C347.488 74.7638 345.177 75.9412 342.884 75.9412V77.9412C345.911 77.9412 348.808 76.3747 350.82 73.4478L349.172 72.3147ZM342.884 75.9412C341.067 75.9412 339.458 75.338 337.434 74.1238L336.405 75.8387C338.582 77.1445 340.556 77.9412 342.884 77.9412V75.9412Z" fill="#D8A838" mask="url(#path-5-outside-3_25_7914)"/>
</g>
<mask id="path-7-outside-4_25_7914" maskUnits="userSpaceOnUse" x="81.8604" y="29.9307" width="211" height="82" fill="black">
<rect fill="white" x="81.8604" y="29.9307" width="211" height="82"/>
<path d="M106.785 90.7744C102.722 90.7744 99.191 90.1494 96.191 88.8994C93.2535 87.6494 90.941 85.9307 89.2535 83.7432C87.6285 81.5557 86.816 79.0557 86.816 76.2432C86.816 72.6182 88.1597 69.5869 90.8472 67.1494C93.5347 64.7119 97.2222 62.9932 101.91 61.9932L104.253 63.5869C101.378 65.3994 99.3472 67.3057 98.1597 69.3057C96.9722 71.2432 96.3785 73.3057 96.3785 75.4932C96.3785 78.3682 97.4097 80.7432 99.4722 82.6182C101.535 84.4932 104.41 85.4307 108.097 85.4307C111.222 85.4307 113.691 84.7432 115.503 83.3682C117.316 81.9307 118.222 79.9932 118.222 77.5557C118.222 75.3057 117.503 73.4619 116.066 72.0244C114.691 70.5869 112.878 69.3682 110.628 68.3682C108.441 67.3057 106.097 66.2744 103.597 65.2744C101.16 64.2744 98.816 63.1182 96.566 61.8057C94.316 60.4932 92.4722 58.8369 91.0347 56.8369C89.6597 54.8369 88.9722 52.2744 88.9722 49.1494C88.9722 46.2119 89.7847 43.6182 91.4097 41.3682C93.0972 39.1182 95.3785 37.3369 98.2535 36.0244C101.128 34.7119 104.41 34.0557 108.097 34.0557C111.722 34.0557 114.816 34.6494 117.378 35.8369C120.003 37.0244 122.035 38.6807 123.472 40.8057C124.972 42.9307 125.722 45.3369 125.722 48.0244C125.722 51.4619 124.628 54.3994 122.441 56.8369C120.316 59.2744 117.285 61.1182 113.347 62.3682L111.66 61.1494C113.472 59.1494 114.753 57.2119 115.503 55.3369C116.316 53.3994 116.722 51.2744 116.722 48.9619C116.722 45.8994 115.878 43.4619 114.191 41.6494C112.566 39.7744 110.253 38.8369 107.253 38.8369C104.691 38.8369 102.566 39.5557 100.878 40.9932C99.2535 42.3682 98.441 44.2744 98.441 46.7119C98.441 49.0869 99.1285 51.0244 100.503 52.5244C101.941 54.0244 103.753 55.3369 105.941 56.4619C108.191 57.5244 110.566 58.5557 113.066 59.5557C115.566 60.4932 117.91 61.5869 120.097 62.8369C122.347 64.0869 124.16 65.6494 125.535 67.5244C126.972 69.3994 127.691 71.8057 127.691 74.7432C127.691 77.8682 126.816 80.6494 125.066 83.0869C123.316 85.5244 120.847 87.4307 117.66 88.8057C114.535 90.1182 110.91 90.7744 106.785 90.7744ZM129.386 107.462L127.886 104.368C130.761 103.118 132.886 101.649 134.261 99.9619C135.698 98.3369 136.417 96.4619 136.417 94.3369C136.417 93.2119 136.198 92.3057 135.761 91.6182C135.386 90.9932 134.886 90.4307 134.261 89.9307C133.698 89.3682 133.105 88.8369 132.48 88.3369C131.917 87.7744 131.417 87.1182 130.98 86.3682C130.605 85.6182 130.417 84.6807 130.417 83.5557C130.417 81.9307 131.011 80.5557 132.198 79.4307C133.448 78.2432 135.011 77.6494 136.886 77.6494C138.073 77.6494 139.23 77.9932 140.355 78.6807C141.542 79.3057 142.48 80.3369 143.167 81.7744C143.855 83.2119 144.198 85.0557 144.198 87.3057C144.198 90.0557 143.605 92.7432 142.417 95.3682C141.292 97.9932 139.605 100.337 137.355 102.399C135.167 104.524 132.511 106.212 129.386 107.462ZM166.518 90.7744C162.456 90.7744 158.925 90.1494 155.925 88.8994C152.987 87.6494 150.675 85.9307 148.987 83.7432C147.362 81.5557 146.55 79.0557 146.55 76.2432C146.55 72.6182 147.893 69.5869 150.581 67.1494C153.268 64.7119 156.956 62.9932 161.643 61.9932L163.987 63.5869C161.112 65.3994 159.081 67.3057 157.893 69.3057C156.706 71.2432 156.112 73.3057 156.112 75.4932C156.112 78.3682 157.143 80.7432 159.206 82.6182C161.268 84.4932 164.143 85.4307 167.831 85.4307C170.956 85.4307 173.425 84.7432 175.237 83.3682C177.05 81.9307 177.956 79.9932 177.956 77.5557C177.956 75.3057 177.237 73.4619 175.8 72.0244C174.425 70.5869 172.612 69.3682 170.362 68.3682C168.175 67.3057 165.831 66.2744 163.331 65.2744C160.893 64.2744 158.55 63.1182 156.3 61.8057C154.05 60.4932 152.206 58.8369 150.768 56.8369C149.393 54.8369 148.706 52.2744 148.706 49.1494C148.706 46.2119 149.518 43.6182 151.143 41.3682C152.831 39.1182 155.112 37.3369 157.987 36.0244C160.862 34.7119 164.143 34.0557 167.831 34.0557C171.456 34.0557 174.55 34.6494 177.112 35.8369C179.737 37.0244 181.768 38.6807 183.206 40.8057C184.706 42.9307 185.456 45.3369 185.456 48.0244C185.456 51.4619 184.362 54.3994 182.175 56.8369C180.05 59.2744 177.018 61.1182 173.081 62.3682L171.393 61.1494C173.206 59.1494 174.487 57.2119 175.237 55.3369C176.05 53.3994 176.456 51.2744 176.456 48.9619C176.456 45.8994 175.612 43.4619 173.925 41.6494C172.3 39.7744 169.987 38.8369 166.987 38.8369C164.425 38.8369 162.3 39.5557 160.612 40.9932C158.987 42.3682 158.175 44.2744 158.175 46.7119C158.175 49.0869 158.862 51.0244 160.237 52.5244C161.675 54.0244 163.487 55.3369 165.675 56.4619C167.925 57.5244 170.3 58.5557 172.8 59.5557C175.3 60.4932 177.643 61.5869 179.831 62.8369C182.081 64.0869 183.893 65.6494 185.268 67.5244C186.706 69.3994 187.425 71.8057 187.425 74.7432C187.425 77.8682 186.55 80.6494 184.8 83.0869C183.05 85.5244 180.581 87.4307 177.393 88.8057C174.268 90.1182 170.643 90.7744 166.518 90.7744ZM214.057 90.7744C209.495 90.7744 205.432 89.6182 201.87 87.3057C198.37 84.9307 195.651 81.6494 193.713 77.4619C191.776 73.2119 190.807 68.3057 190.807 62.7432C190.807 57.1182 191.807 52.1494 193.807 47.8369C195.87 43.5244 198.651 40.1494 202.151 37.7119C205.713 35.2744 209.745 34.0557 214.245 34.0557C218.557 34.0557 222.37 35.2119 225.682 37.5244C229.057 39.8369 231.682 43.0869 233.557 47.2744C235.432 51.4619 236.37 56.3369 236.37 61.8994C236.37 67.3369 235.37 72.2432 233.37 76.6182C231.432 80.9932 228.776 84.4619 225.401 87.0244C222.026 89.5244 218.245 90.7744 214.057 90.7744ZM214.713 85.3369C217.026 85.3369 219.026 84.5244 220.713 82.8994C222.401 81.2744 223.713 78.8994 224.651 75.7744C225.588 72.5869 226.057 68.7432 226.057 64.2432C226.057 56.4932 224.87 50.3682 222.495 45.8682C220.182 41.3057 217.151 39.0244 213.401 39.0244C209.713 39.0244 206.776 40.8994 204.588 44.6494C202.463 48.3994 201.401 53.7744 201.401 60.7744C201.401 65.7119 201.963 70.0244 203.088 73.7119C204.213 77.3994 205.776 80.2744 207.776 82.3369C209.776 84.3369 212.088 85.3369 214.713 85.3369ZM265.623 90.7744C261.061 90.7744 256.998 89.6182 253.436 87.3057C249.936 84.9307 247.217 81.6494 245.28 77.4619C243.342 73.2119 242.373 68.3057 242.373 62.7432C242.373 57.1182 243.373 52.1494 245.373 47.8369C247.436 43.5244 250.217 40.1494 253.717 37.7119C257.28 35.2744 261.311 34.0557 265.811 34.0557C270.123 34.0557 273.936 35.2119 277.248 37.5244C280.623 39.8369 283.248 43.0869 285.123 47.2744C286.998 51.4619 287.936 56.3369 287.936 61.8994C287.936 67.3369 286.936 72.2432 284.936 76.6182C282.998 80.9932 280.342 84.4619 276.967 87.0244C273.592 89.5244 269.811 90.7744 265.623 90.7744ZM266.28 85.3369C268.592 85.3369 270.592 84.5244 272.28 82.8994C273.967 81.2744 275.28 78.8994 276.217 75.7744C277.155 72.5869 277.623 68.7432 277.623 64.2432C277.623 56.4932 276.436 50.3682 274.061 45.8682C271.748 41.3057 268.717 39.0244 264.967 39.0244C261.28 39.0244 258.342 40.8994 256.155 44.6494C254.03 48.3994 252.967 53.7744 252.967 60.7744C252.967 65.7119 253.53 70.0244 254.655 73.7119C255.78 77.3994 257.342 80.2744 259.342 82.3369C261.342 84.3369 263.655 85.3369 266.28 85.3369Z"/>
</mask>
<path d="M106.785 90.7744C102.722 90.7744 99.191 90.1494 96.191 88.8994C93.2535 87.6494 90.941 85.9307 89.2535 83.7432C87.6285 81.5557 86.816 79.0557 86.816 76.2432C86.816 72.6182 88.1597 69.5869 90.8472 67.1494C93.5347 64.7119 97.2222 62.9932 101.91 61.9932L104.253 63.5869C101.378 65.3994 99.3472 67.3057 98.1597 69.3057C96.9722 71.2432 96.3785 73.3057 96.3785 75.4932C96.3785 78.3682 97.4097 80.7432 99.4722 82.6182C101.535 84.4932 104.41 85.4307 108.097 85.4307C111.222 85.4307 113.691 84.7432 115.503 83.3682C117.316 81.9307 118.222 79.9932 118.222 77.5557C118.222 75.3057 117.503 73.4619 116.066 72.0244C114.691 70.5869 112.878 69.3682 110.628 68.3682C108.441 67.3057 106.097 66.2744 103.597 65.2744C101.16 64.2744 98.816 63.1182 96.566 61.8057C94.316 60.4932 92.4722 58.8369 91.0347 56.8369C89.6597 54.8369 88.9722 52.2744 88.9722 49.1494C88.9722 46.2119 89.7847 43.6182 91.4097 41.3682C93.0972 39.1182 95.3785 37.3369 98.2535 36.0244C101.128 34.7119 104.41 34.0557 108.097 34.0557C111.722 34.0557 114.816 34.6494 117.378 35.8369C120.003 37.0244 122.035 38.6807 123.472 40.8057C124.972 42.9307 125.722 45.3369 125.722 48.0244C125.722 51.4619 124.628 54.3994 122.441 56.8369C120.316 59.2744 117.285 61.1182 113.347 62.3682L111.66 61.1494C113.472 59.1494 114.753 57.2119 115.503 55.3369C116.316 53.3994 116.722 51.2744 116.722 48.9619C116.722 45.8994 115.878 43.4619 114.191 41.6494C112.566 39.7744 110.253 38.8369 107.253 38.8369C104.691 38.8369 102.566 39.5557 100.878 40.9932C99.2535 42.3682 98.441 44.2744 98.441 46.7119C98.441 49.0869 99.1285 51.0244 100.503 52.5244C101.941 54.0244 103.753 55.3369 105.941 56.4619C108.191 57.5244 110.566 58.5557 113.066 59.5557C115.566 60.4932 117.91 61.5869 120.097 62.8369C122.347 64.0869 124.16 65.6494 125.535 67.5244C126.972 69.3994 127.691 71.8057 127.691 74.7432C127.691 77.8682 126.816 80.6494 125.066 83.0869C123.316 85.5244 120.847 87.4307 117.66 88.8057C114.535 90.1182 110.91 90.7744 106.785 90.7744ZM129.386 107.462L127.886 104.368C130.761 103.118 132.886 101.649 134.261 99.9619C135.698 98.3369 136.417 96.4619 136.417 94.3369C136.417 93.2119 136.198 92.3057 135.761 91.6182C135.386 90.9932 134.886 90.4307 134.261 89.9307C133.698 89.3682 133.105 88.8369 132.48 88.3369C131.917 87.7744 131.417 87.1182 130.98 86.3682C130.605 85.6182 130.417 84.6807 130.417 83.5557C130.417 81.9307 131.011 80.5557 132.198 79.4307C133.448 78.2432 135.011 77.6494 136.886 77.6494C138.073 77.6494 139.23 77.9932 140.355 78.6807C141.542 79.3057 142.48 80.3369 143.167 81.7744C143.855 83.2119 144.198 85.0557 144.198 87.3057C144.198 90.0557 143.605 92.7432 142.417 95.3682C141.292 97.9932 139.605 100.337 137.355 102.399C135.167 104.524 132.511 106.212 129.386 107.462ZM166.518 90.7744C162.456 90.7744 158.925 90.1494 155.925 88.8994C152.987 87.6494 150.675 85.9307 148.987 83.7432C147.362 81.5557 146.55 79.0557 146.55 76.2432C146.55 72.6182 147.893 69.5869 150.581 67.1494C153.268 64.7119 156.956 62.9932 161.643 61.9932L163.987 63.5869C161.112 65.3994 159.081 67.3057 157.893 69.3057C156.706 71.2432 156.112 73.3057 156.112 75.4932C156.112 78.3682 157.143 80.7432 159.206 82.6182C161.268 84.4932 164.143 85.4307 167.831 85.4307C170.956 85.4307 173.425 84.7432 175.237 83.3682C177.05 81.9307 177.956 79.9932 177.956 77.5557C177.956 75.3057 177.237 73.4619 175.8 72.0244C174.425 70.5869 172.612 69.3682 170.362 68.3682C168.175 67.3057 165.831 66.2744 163.331 65.2744C160.893 64.2744 158.55 63.1182 156.3 61.8057C154.05 60.4932 152.206 58.8369 150.768 56.8369C149.393 54.8369 148.706 52.2744 148.706 49.1494C148.706 46.2119 149.518 43.6182 151.143 41.3682C152.831 39.1182 155.112 37.3369 157.987 36.0244C160.862 34.7119 164.143 34.0557 167.831 34.0557C171.456 34.0557 174.55 34.6494 177.112 35.8369C179.737 37.0244 181.768 38.6807 183.206 40.8057C184.706 42.9307 185.456 45.3369 185.456 48.0244C185.456 51.4619 184.362 54.3994 182.175 56.8369C180.05 59.2744 177.018 61.1182 173.081 62.3682L171.393 61.1494C173.206 59.1494 174.487 57.2119 175.237 55.3369C176.05 53.3994 176.456 51.2744 176.456 48.9619C176.456 45.8994 175.612 43.4619 173.925 41.6494C172.3 39.7744 169.987 38.8369 166.987 38.8369C164.425 38.8369 162.3 39.5557 160.612 40.9932C158.987 42.3682 158.175 44.2744 158.175 46.7119C158.175 49.0869 158.862 51.0244 160.237 52.5244C161.675 54.0244 163.487 55.3369 165.675 56.4619C167.925 57.5244 170.3 58.5557 172.8 59.5557C175.3 60.4932 177.643 61.5869 179.831 62.8369C182.081 64.0869 183.893 65.6494 185.268 67.5244C186.706 69.3994 187.425 71.8057 187.425 74.7432C187.425 77.8682 186.55 80.6494 184.8 83.0869C183.05 85.5244 180.581 87.4307 177.393 88.8057C174.268 90.1182 170.643 90.7744 166.518 90.7744ZM214.057 90.7744C209.495 90.7744 205.432 89.6182 201.87 87.3057C198.37 84.9307 195.651 81.6494 193.713 77.4619C191.776 73.2119 190.807 68.3057 190.807 62.7432C190.807 57.1182 191.807 52.1494 193.807 47.8369C195.87 43.5244 198.651 40.1494 202.151 37.7119C205.713 35.2744 209.745 34.0557 214.245 34.0557C218.557 34.0557 222.37 35.2119 225.682 37.5244C229.057 39.8369 231.682 43.0869 233.557 47.2744C235.432 51.4619 236.37 56.3369 236.37 61.8994C236.37 67.3369 235.37 72.2432 233.37 76.6182C231.432 80.9932 228.776 84.4619 225.401 87.0244C222.026 89.5244 218.245 90.7744 214.057 90.7744ZM214.713 85.3369C217.026 85.3369 219.026 84.5244 220.713 82.8994C222.401 81.2744 223.713 78.8994 224.651 75.7744C225.588 72.5869 226.057 68.7432 226.057 64.2432C226.057 56.4932 224.87 50.3682 222.495 45.8682C220.182 41.3057 217.151 39.0244 213.401 39.0244C209.713 39.0244 206.776 40.8994 204.588 44.6494C202.463 48.3994 201.401 53.7744 201.401 60.7744C201.401 65.7119 201.963 70.0244 203.088 73.7119C204.213 77.3994 205.776 80.2744 207.776 82.3369C209.776 84.3369 212.088 85.3369 214.713 85.3369ZM265.623 90.7744C261.061 90.7744 256.998 89.6182 253.436 87.3057C249.936 84.9307 247.217 81.6494 245.28 77.4619C243.342 73.2119 242.373 68.3057 242.373 62.7432C242.373 57.1182 243.373 52.1494 245.373 47.8369C247.436 43.5244 250.217 40.1494 253.717 37.7119C257.28 35.2744 261.311 34.0557 265.811 34.0557C270.123 34.0557 273.936 35.2119 277.248 37.5244C280.623 39.8369 283.248 43.0869 285.123 47.2744C286.998 51.4619 287.936 56.3369 287.936 61.8994C287.936 67.3369 286.936 72.2432 284.936 76.6182C282.998 80.9932 280.342 84.4619 276.967 87.0244C273.592 89.5244 269.811 90.7744 265.623 90.7744ZM266.28 85.3369C268.592 85.3369 270.592 84.5244 272.28 82.8994C273.967 81.2744 275.28 78.8994 276.217 75.7744C277.155 72.5869 277.623 68.7432 277.623 64.2432C277.623 56.4932 276.436 50.3682 274.061 45.8682C271.748 41.3057 268.717 39.0244 264.967 39.0244C261.28 39.0244 258.342 40.8994 256.155 44.6494C254.03 48.3994 252.967 53.7744 252.967 60.7744C252.967 65.7119 253.53 70.0244 254.655 73.7119C255.78 77.3994 257.342 80.2744 259.342 82.3369C261.342 84.3369 263.655 85.3369 266.28 85.3369Z" fill="white"/>
<path d="M96.191 88.8994L94.6248 92.58C94.634 92.584 94.6432 92.5879 94.6525 92.5917L96.191 88.8994ZM89.2535 83.7432L86.0425 86.1285C86.0569 86.1479 86.0716 86.1672 86.0863 86.1864L89.2535 83.7432ZM101.91 61.9932L104.159 58.6855C103.257 58.0718 102.142 57.8535 101.075 58.0812L101.91 61.9932ZM104.253 63.5869L106.387 66.9706C107.528 66.2512 108.229 65.0051 108.253 63.6563C108.276 62.3075 107.618 61.0378 106.503 60.2792L104.253 63.5869ZM98.1597 69.3057L101.57 71.3959C101.58 71.38 101.59 71.3639 101.599 71.3478L98.1597 69.3057ZM115.503 83.3682L117.921 86.5549C117.944 86.5376 117.967 86.52 117.989 86.5022L115.503 83.3682ZM116.066 72.0244L113.175 74.7893C113.196 74.8107 113.217 74.8319 113.238 74.8528L116.066 72.0244ZM110.628 68.3682L108.881 71.9662C108.922 71.986 108.963 72.005 109.004 72.0234L110.628 68.3682ZM103.597 65.2744L102.079 68.9751C102.09 68.9795 102.101 68.984 102.112 68.9883L103.597 65.2744ZM91.0347 56.8369L87.7386 59.103C87.7544 59.126 87.7704 59.1488 87.7867 59.1715L91.0347 56.8369ZM91.4097 41.3682L88.2097 38.9682C88.1953 38.9874 88.1811 39.0067 88.167 39.0262L91.4097 41.3682ZM117.378 35.8369L115.697 39.4662C115.708 39.4713 115.719 39.4763 115.73 39.4813L117.378 35.8369ZM123.472 40.8057L120.159 43.0469C120.174 43.0689 120.189 43.0907 120.204 43.1124L123.472 40.8057ZM122.441 56.8369L119.464 54.1653C119.451 54.1796 119.438 54.1939 119.426 54.2084L122.441 56.8369ZM113.347 62.3682L111.005 65.6109C112.032 66.3526 113.35 66.564 114.558 66.1807L113.347 62.3682ZM111.66 61.1494L108.696 58.4633C107.932 59.3065 107.563 60.4351 107.682 61.5668C107.8 62.6984 108.395 63.7259 109.318 64.3921L111.66 61.1494ZM115.503 55.3369L111.815 53.79C111.806 53.8104 111.798 53.8308 111.79 53.8514L115.503 55.3369ZM114.191 41.6494L111.168 44.2691C111.199 44.305 111.231 44.3403 111.263 44.3751L114.191 41.6494ZM100.878 40.9932L103.462 44.0467L103.472 44.0381L100.878 40.9932ZM100.503 52.5244L97.5549 55.2273C97.5748 55.2491 97.5951 55.2707 97.6155 55.292L100.503 52.5244ZM105.941 56.4619L104.112 60.0191C104.152 60.0397 104.192 60.0596 104.233 60.0789L105.941 56.4619ZM113.066 59.5557L111.58 63.2696C111.607 63.2803 111.634 63.2908 111.661 63.301L113.066 59.5557ZM120.097 62.8369L118.113 66.3099C118.127 66.3179 118.141 66.3257 118.155 66.3335L120.097 62.8369ZM125.535 67.5244L122.309 69.8899C122.326 69.9128 122.343 69.9356 122.36 69.9581L125.535 67.5244ZM117.66 88.8057L119.209 92.4936C119.22 92.4886 119.232 92.4836 119.244 92.4785L117.66 88.8057ZM106.785 86.7744C103.123 86.7744 100.137 86.2101 97.7294 85.2071L94.6525 92.5917C98.2453 94.0887 102.322 94.7744 106.785 94.7744V86.7744ZM97.7572 85.2188C95.3515 84.1951 93.6281 82.8653 92.4206 81.2999L86.0863 86.1864C88.2538 88.9961 91.1555 91.1038 94.6248 92.58L97.7572 85.2188ZM92.4645 81.3579C91.3692 79.8835 90.816 78.226 90.816 76.2432H82.816C82.816 79.8853 83.8878 83.2279 86.0425 86.1285L92.4645 81.3579ZM90.816 76.2432C90.816 73.7479 91.6821 71.7924 93.5345 70.1123L88.16 64.1865C84.6374 67.3815 82.816 71.4884 82.816 76.2432H90.816ZM93.5345 70.1123C95.5571 68.2778 98.5322 66.8037 102.744 65.9051L101.075 58.0812C95.9123 59.1826 91.5123 61.146 88.16 64.1865L93.5345 70.1123ZM99.6605 65.3009L102.004 66.8946L106.503 60.2792L104.159 58.6855L99.6605 65.3009ZM102.12 60.2032C98.9386 62.2091 96.3453 64.5266 94.7203 67.2635L101.599 71.3478C102.349 70.0847 103.818 68.5898 106.387 66.9706L102.12 60.2032ZM94.7493 67.2154C93.192 69.7563 92.3785 72.5384 92.3785 75.4932H100.378C100.378 74.0729 100.752 72.73 101.57 71.3959L94.7493 67.2154ZM92.3785 75.4932C92.3785 79.4549 93.8558 82.9182 96.7815 85.5779L102.163 79.6584C100.964 78.5681 100.378 77.2814 100.378 75.4932H92.3785ZM96.7815 85.5779C99.7916 88.3144 103.743 89.4307 108.097 89.4307V81.4307C105.077 81.4307 103.278 80.672 102.163 79.6584L96.7815 85.5779ZM108.097 89.4307C111.774 89.4307 115.195 88.6232 117.921 86.5549L113.086 80.1814C112.187 80.8631 110.67 81.4307 108.097 81.4307V89.4307ZM117.989 86.5022C120.816 84.26 122.222 81.1384 122.222 77.5557H114.222C114.222 78.8479 113.816 79.6013 113.018 80.2342L117.989 86.5022ZM122.222 77.5557C122.222 74.369 121.166 71.4671 118.894 69.196L113.238 74.8528C113.841 75.4567 114.222 76.2423 114.222 77.5557H122.222ZM118.957 69.2595C117.147 67.3677 114.869 65.8757 112.253 64.7129L109.004 72.0234C110.888 72.8606 112.235 73.8061 113.175 74.7893L118.957 69.2595ZM112.376 64.7701C110.094 63.6617 107.662 62.5923 105.083 61.5605L102.112 68.9883C104.532 69.9565 106.788 70.9496 108.881 71.9662L112.376 64.7701ZM105.115 61.5737C102.847 60.6432 100.67 59.5687 98.5815 58.3505L94.5505 65.2608C96.9622 66.6676 99.4722 67.9056 102.079 68.9751L105.115 61.5737ZM98.5815 58.3505C96.788 57.3043 95.3739 56.0205 94.2828 54.5024L87.7867 59.1715C89.5705 61.6534 91.844 63.682 94.5505 65.2608L98.5815 58.3505ZM94.3309 54.5708C93.53 53.4059 92.9722 51.6968 92.9722 49.1494H84.9722C84.9722 52.852 85.7895 56.268 87.7386 59.103L94.3309 54.5708ZM92.9722 49.1494C92.9722 47.0006 93.5494 45.2374 94.6524 43.7101L88.167 39.0262C86.02 41.9989 84.9722 45.4232 84.9722 49.1494H92.9722ZM94.6097 43.7682C95.8483 42.1167 97.5716 40.7328 99.9146 39.6632L96.5923 32.3857C93.1853 33.941 90.3461 36.1196 88.2097 38.9682L94.6097 43.7682ZM99.9146 39.6632C102.188 38.6252 104.888 38.0557 108.097 38.0557V30.0557C103.931 30.0557 100.069 30.7986 96.5923 32.3857L99.9146 39.6632ZM108.097 38.0557C111.3 38.0557 113.788 38.5818 115.697 39.4662L119.06 32.2077C115.844 30.717 112.144 30.0557 108.097 30.0557V38.0557ZM115.73 39.4813C117.766 40.4025 119.185 41.6076 120.159 43.0469L126.785 38.5644C124.884 35.7538 122.241 33.6463 119.027 32.1925L115.73 39.4813ZM120.204 43.1124C121.211 44.539 121.722 46.1337 121.722 48.0244H129.722C129.722 44.5401 128.733 41.3223 126.74 38.4989L120.204 43.1124ZM121.722 48.0244C121.722 50.5292 120.958 52.5006 119.464 54.1653L125.418 59.5086C128.299 56.2982 129.722 52.3946 129.722 48.0244H121.722ZM119.426 54.2084C117.899 55.9595 115.567 57.4668 112.137 58.5557L114.558 66.1807C119.003 64.7695 122.733 62.5893 125.456 59.4655L119.426 54.2084ZM115.689 59.1254L114.002 57.9067L109.318 64.3921L111.005 65.6109L115.689 59.1254ZM114.624 63.8355C116.655 61.5945 118.242 59.2599 119.217 56.8225L111.79 53.8514C111.265 55.1639 110.29 56.7043 108.696 58.4633L114.624 63.8355ZM119.192 56.8838C120.23 54.4092 120.722 51.7519 120.722 48.9619H112.722C112.722 50.7969 112.402 52.3896 111.815 53.79L119.192 56.8838ZM120.722 48.9619C120.722 45.1389 119.649 41.6418 117.119 38.9237L111.263 44.3751C112.108 45.2821 112.722 46.6599 112.722 48.9619H120.722ZM117.214 39.0297C114.671 36.0958 111.148 34.8369 107.253 34.8369V42.8369C109.359 42.8369 110.461 43.4531 111.168 44.2691L117.214 39.0297ZM107.253 34.8369C103.897 34.8369 100.807 35.7997 98.2846 37.9482L103.472 44.0381C104.325 43.3117 105.485 42.8369 107.253 42.8369V34.8369ZM98.2947 37.9396C95.6356 40.1897 94.441 43.2884 94.441 46.7119H102.441C102.441 45.2605 102.871 44.5467 103.462 44.0467L98.2947 37.9396ZM94.441 46.7119C94.441 49.9094 95.3921 52.868 97.5549 55.2273L103.452 49.8215C102.865 49.1809 102.441 48.2644 102.441 46.7119H94.441ZM97.6155 55.292C99.4102 57.1648 101.601 58.7277 104.112 60.0191L107.77 52.9048C105.906 51.9461 104.472 50.8841 103.391 49.7568L97.6155 55.292ZM104.233 60.0789C106.562 61.1786 109.011 62.2419 111.58 63.2696L114.552 55.8418C112.121 54.8694 109.82 53.8702 107.649 52.8449L104.233 60.0789ZM111.661 63.301C113.973 64.1678 116.122 65.1721 118.113 66.3099L122.082 59.3639C119.698 58.0017 117.159 56.8185 114.47 55.8103L111.661 63.301ZM118.155 66.3335C119.955 67.3336 121.31 68.5277 122.309 69.8899L128.76 65.159C127.009 62.7711 124.74 60.8402 122.04 59.3403L118.155 66.3335ZM122.36 69.9581C123.143 70.9794 123.691 72.4673 123.691 74.7432H131.691C131.691 71.144 130.801 67.8195 128.709 65.0907L122.36 69.9581ZM123.691 74.7432C123.691 77.0681 123.057 79.0259 121.817 80.7541L128.315 85.4197C130.575 82.2729 131.691 78.6682 131.691 74.7432H123.691ZM121.817 80.7541C120.553 82.5148 118.703 83.9994 116.075 85.1328L119.244 92.4785C122.992 90.8619 126.079 88.534 128.315 85.4197L121.817 80.7541ZM116.111 85.1177C113.57 86.1848 110.49 86.7744 106.785 86.7744V94.7744C111.329 94.7744 115.499 94.0516 119.209 92.4936L116.111 85.1177ZM129.386 107.462L125.787 109.207C126.703 111.096 128.923 111.955 130.872 111.176L129.386 107.462ZM127.886 104.368L126.291 100.7C125.292 101.134 124.513 101.958 124.135 102.979C123.757 104.001 123.811 105.133 124.287 106.113L127.886 104.368ZM134.261 99.9619L131.265 97.3116C131.229 97.3521 131.194 97.3933 131.16 97.4352L134.261 99.9619ZM135.761 91.6182L132.331 93.6761C132.349 93.7062 132.368 93.7361 132.386 93.7657L135.761 91.6182ZM134.261 89.9307L131.433 92.7591C131.537 92.8634 131.647 92.9619 131.762 93.0541L134.261 89.9307ZM132.48 88.3369L129.651 91.1653C129.756 91.2697 129.866 91.3682 129.981 91.4604L132.48 88.3369ZM130.98 86.3682L127.402 88.157C127.44 88.2339 127.481 88.3094 127.525 88.3837L130.98 86.3682ZM132.198 79.4307L134.949 82.3345L134.953 82.3307L132.198 79.4307ZM140.355 78.6807L138.269 82.0938C138.342 82.1383 138.416 82.1805 138.492 82.2203L140.355 78.6807ZM142.417 95.3682L138.773 93.7195C138.762 93.7437 138.751 93.7681 138.741 93.7925L142.417 95.3682ZM137.355 102.399L134.652 99.4508C134.623 99.4769 134.595 99.5034 134.568 99.5303L137.355 102.399ZM132.985 105.717L131.485 102.623L124.287 106.113L125.787 109.207L132.985 105.717ZM129.481 108.036C132.701 106.636 135.445 104.841 137.362 102.489L131.16 97.4352C130.327 98.4577 128.821 99.6001 126.291 100.7L129.481 108.036ZM137.257 102.612C139.326 100.273 140.417 97.4606 140.417 94.3369H132.417C132.417 95.4632 132.071 96.401 131.265 97.3116L137.257 102.612ZM140.417 94.3369C140.417 92.7301 140.109 91.0005 139.136 89.4707L132.386 93.7657C132.288 93.6109 132.417 93.6937 132.417 94.3369H140.417ZM139.191 89.5602C138.548 88.4894 137.72 87.5751 136.76 86.8072L131.762 93.0541C132.052 93.2863 132.223 93.497 132.331 93.6761L139.191 89.5602ZM137.089 87.1022C136.422 86.4347 135.718 85.8051 134.979 85.2134L129.981 91.4604C130.491 91.8688 130.975 92.3016 131.433 92.7591L137.089 87.1022ZM135.308 85.5085C135.01 85.21 134.715 84.8328 134.435 84.3527L127.525 88.3837C128.12 89.4036 128.825 90.3389 129.651 91.1653L135.308 85.5085ZM134.557 84.5793C134.538 84.5411 134.417 84.2621 134.417 83.5557H126.417C126.417 85.0993 126.671 86.6952 127.402 88.157L134.557 84.5793ZM134.417 83.5557C134.417 83.0373 134.553 82.7098 134.949 82.3345L129.447 76.5269C127.469 78.4016 126.417 80.8241 126.417 83.5557H134.417ZM134.953 82.3307C135.392 81.9142 135.938 81.6494 136.886 81.6494V73.6494C134.084 73.6494 131.505 74.5721 129.443 76.5307L134.953 82.3307ZM136.886 81.6494C137.258 81.6494 137.701 81.7465 138.269 82.0938L142.441 75.2675C140.759 74.2398 138.889 73.6494 136.886 73.6494V81.6494ZM138.492 82.2203C138.782 82.3732 139.171 82.6894 139.559 83.5002L146.776 80.0486C145.789 77.9845 144.302 76.2381 142.218 75.141L138.492 82.2203ZM139.559 83.5002C139.905 84.2242 140.198 85.4231 140.198 87.3057H148.198C148.198 84.6882 147.805 82.1996 146.776 80.0486L139.559 83.5002ZM140.198 87.3057C140.198 89.46 139.737 91.5873 138.773 93.7195L146.062 97.0168C147.472 93.899 148.198 90.6513 148.198 87.3057H140.198ZM138.741 93.7925C137.854 95.8607 136.513 97.7449 134.652 99.4508L140.058 105.348C142.697 102.929 144.73 100.126 146.094 96.9438L138.741 93.7925ZM134.568 99.5303C132.792 101.255 130.591 102.672 127.9 103.748L130.872 111.176C134.431 109.752 137.543 107.793 140.142 105.269L134.568 99.5303ZM155.925 88.8994L154.359 92.58C154.368 92.584 154.377 92.5879 154.386 92.5917L155.925 88.8994ZM148.987 83.7432L145.776 86.1285C145.791 86.1479 145.805 86.1672 145.82 86.1864L148.987 83.7432ZM161.643 61.9932L163.893 58.6855C162.99 58.0718 161.876 57.8535 160.809 58.0812L161.643 61.9932ZM163.987 63.5869L166.12 66.9706C167.262 66.2512 167.963 65.0051 167.987 63.6563C168.01 62.3075 167.352 61.0378 166.236 60.2792L163.987 63.5869ZM157.893 69.3057L161.304 71.3959C161.314 71.38 161.323 71.3639 161.333 71.3478L157.893 69.3057ZM175.237 83.3682L177.655 86.5549C177.678 86.5376 177.7 86.52 177.723 86.5022L175.237 83.3682ZM175.8 72.0244L172.909 74.7893C172.93 74.8107 172.95 74.8319 172.971 74.8528L175.8 72.0244ZM170.362 68.3682L168.615 71.9662C168.655 71.986 168.696 72.005 168.738 72.0234L170.362 68.3682ZM163.331 65.2744L161.813 68.9751C161.824 68.9795 161.835 68.984 161.845 68.9883L163.331 65.2744ZM150.768 56.8369L147.472 59.103C147.488 59.126 147.504 59.1488 147.52 59.1715L150.768 56.8369ZM151.143 41.3682L147.943 38.9682C147.929 38.9874 147.915 39.0067 147.901 39.0262L151.143 41.3682ZM177.112 35.8369L175.43 39.4662C175.441 39.4713 175.452 39.4763 175.464 39.4813L177.112 35.8369ZM183.206 40.8057L179.893 43.0469C179.908 43.0689 179.923 43.0907 179.938 43.1124L183.206 40.8057ZM182.175 56.8369L179.198 54.1653C179.185 54.1796 179.172 54.1939 179.16 54.2084L182.175 56.8369ZM173.081 62.3682L170.739 65.6109C171.766 66.3526 173.084 66.564 174.291 66.1807L173.081 62.3682ZM171.393 61.1494L168.43 58.4633C167.665 59.3065 167.297 60.4351 167.415 61.5668C167.534 62.6984 168.129 63.7259 169.052 64.3921L171.393 61.1494ZM175.237 55.3369L171.548 53.79C171.54 53.8104 171.532 53.8308 171.523 53.8514L175.237 55.3369ZM173.925 41.6494L170.902 44.2691C170.933 44.305 170.965 44.3403 170.997 44.3751L173.925 41.6494ZM160.612 40.9932L163.196 44.0467L163.206 44.0381L160.612 40.9932ZM160.237 52.5244L157.289 55.2273C157.309 55.2491 157.329 55.2707 157.349 55.292L160.237 52.5244ZM165.675 56.4619L163.845 60.0191C163.885 60.0397 163.926 60.0596 163.967 60.0789L165.675 56.4619ZM172.8 59.5557L171.314 63.2696C171.341 63.2803 171.368 63.2908 171.395 63.301L172.8 59.5557ZM179.831 62.8369L177.846 66.3099C177.86 66.3179 177.874 66.3257 177.888 66.3335L179.831 62.8369ZM185.268 67.5244L182.043 69.8899C182.06 69.9128 182.077 69.9356 182.094 69.9581L185.268 67.5244ZM177.393 88.8057L178.942 92.4936C178.954 92.4886 178.966 92.4836 178.978 92.4785L177.393 88.8057ZM166.518 86.7744C162.857 86.7744 159.87 86.2101 157.463 85.2071L154.386 92.5917C157.979 94.0887 162.055 94.7744 166.518 94.7744V86.7744ZM157.491 85.2188C155.085 84.1951 153.362 82.8653 152.154 81.2999L145.82 86.1864C147.988 88.9961 150.889 91.1038 154.359 92.58L157.491 85.2188ZM152.198 81.3579C151.103 79.8835 150.55 78.226 150.55 76.2432H142.55C142.55 79.8853 143.622 83.2279 145.776 86.1285L152.198 81.3579ZM150.55 76.2432C150.55 73.7479 151.416 71.7924 153.268 70.1123L147.894 64.1865C144.371 67.3815 142.55 71.4884 142.55 76.2432H150.55ZM153.268 70.1123C155.291 68.2778 158.266 66.8037 162.478 65.9051L160.809 58.0812C155.646 59.1826 151.246 61.146 147.894 64.1865L153.268 70.1123ZM159.394 65.3009L161.738 66.8946L166.236 60.2792L163.893 58.6855L159.394 65.3009ZM161.854 60.2032C158.672 62.2091 156.079 64.5266 154.454 67.2635L161.333 71.3478C162.083 70.0847 163.552 68.5898 166.12 66.9706L161.854 60.2032ZM154.483 67.2154C152.926 69.7563 152.112 72.5384 152.112 75.4932H160.112C160.112 74.0729 160.486 72.73 161.304 71.3959L154.483 67.2154ZM152.112 75.4932C152.112 79.4549 153.59 82.9182 156.515 85.5779L161.897 79.6584C160.697 78.5681 160.112 77.2814 160.112 75.4932H152.112ZM156.515 85.5779C159.525 88.3144 163.477 89.4307 167.831 89.4307V81.4307C164.81 81.4307 163.012 80.672 161.897 79.6584L156.515 85.5779ZM167.831 89.4307C171.508 89.4307 174.928 88.6232 177.655 86.5549L172.82 80.1814C171.921 80.8631 170.404 81.4307 167.831 81.4307V89.4307ZM177.723 86.5022C180.55 84.26 181.956 81.1384 181.956 77.5557H173.956C173.956 78.8479 173.55 79.6013 172.752 80.2342L177.723 86.5022ZM181.956 77.5557C181.956 74.369 180.899 71.4671 178.628 69.196L172.971 74.8528C173.575 75.4567 173.956 76.2423 173.956 77.5557H181.956ZM178.69 69.2595C176.881 67.3677 174.603 65.8757 171.987 64.7129L168.738 72.0234C170.621 72.8606 171.969 73.8061 172.909 74.7893L178.69 69.2595ZM172.11 64.7701C169.828 63.6617 167.396 62.5923 164.817 61.5605L161.845 68.9883C164.266 69.9565 166.522 70.9496 168.615 71.9662L172.11 64.7701ZM164.849 61.5737C162.581 60.6432 160.404 59.5687 158.315 58.3505L154.284 65.2608C156.696 66.6676 159.206 67.9056 161.813 68.9751L164.849 61.5737ZM158.315 58.3505C156.522 57.3043 155.108 56.0205 154.017 54.5024L147.52 59.1715C149.304 61.6534 151.578 63.682 154.284 65.2608L158.315 58.3505ZM154.065 54.5708C153.264 53.4059 152.706 51.6968 152.706 49.1494H144.706C144.706 52.852 145.523 56.268 147.472 59.103L154.065 54.5708ZM152.706 49.1494C152.706 47.0006 153.283 45.2374 154.386 43.7101L147.901 39.0262C145.754 41.9989 144.706 45.4232 144.706 49.1494H152.706ZM154.343 43.7682C155.582 42.1167 157.305 40.7328 159.648 39.6632L156.326 32.3857C152.919 33.941 150.08 36.1196 147.943 38.9682L154.343 43.7682ZM159.648 39.6632C161.922 38.6252 164.622 38.0557 167.831 38.0557V30.0557C163.665 30.0557 159.802 30.7986 156.326 32.3857L159.648 39.6632ZM167.831 38.0557C171.034 38.0557 173.522 38.5818 175.43 39.4662L178.794 32.2077C175.577 30.717 171.878 30.0557 167.831 30.0557V38.0557ZM175.464 39.4813C177.5 40.4025 178.919 41.6076 179.893 43.0469L186.519 38.5644C184.618 35.7538 181.975 33.6463 178.761 32.1925L175.464 39.4813ZM179.938 43.1124C180.945 44.539 181.456 46.1337 181.456 48.0244H189.456C189.456 44.5401 188.467 41.3223 186.474 38.4989L179.938 43.1124ZM181.456 48.0244C181.456 50.5292 180.692 52.5006 179.198 54.1653L185.152 59.5086C188.033 56.2982 189.456 52.3946 189.456 48.0244H181.456ZM179.16 54.2084C177.633 55.9595 175.301 57.4668 171.871 58.5557L174.291 66.1807C178.736 64.7695 182.466 62.5893 185.19 59.4655L179.16 54.2084ZM175.423 59.1254L173.735 57.9067L169.052 64.3921L170.739 65.6109L175.423 59.1254ZM174.357 63.8355C176.388 61.5945 177.976 59.2599 178.951 56.8225L171.523 53.8514C170.998 55.1639 170.024 56.7043 168.43 58.4633L174.357 63.8355ZM178.926 56.8838C179.964 54.4092 180.456 51.7519 180.456 48.9619H172.456C172.456 50.7969 172.136 52.3896 171.548 53.79L178.926 56.8838ZM180.456 48.9619C180.456 45.1389 179.383 41.6418 176.852 38.9237L170.997 44.3751C171.842 45.2821 172.456 46.6599 172.456 48.9619H180.456ZM176.947 39.0297C174.405 36.0958 170.882 34.8369 166.987 34.8369V42.8369C169.092 42.8369 170.195 43.4531 170.902 44.2691L176.947 39.0297ZM166.987 34.8369C163.631 34.8369 160.541 35.7997 158.018 37.9482L163.206 44.0381C164.059 43.3117 165.219 42.8369 166.987 42.8369V34.8369ZM158.028 37.9396C155.369 40.1897 154.175 43.2884 154.175 46.7119H162.175C162.175 45.2605 162.605 44.5467 163.196 44.0467L158.028 37.9396ZM154.175 46.7119C154.175 49.9094 155.126 52.868 157.289 55.2273L163.186 49.8215C162.599 49.1809 162.175 48.2644 162.175 46.7119H154.175ZM157.349 55.292C159.144 57.1648 161.334 58.7277 163.845 60.0191L167.504 52.9048C165.64 51.9461 164.205 50.8841 163.125 49.7568L157.349 55.292ZM163.967 60.0789C166.296 61.1786 168.745 62.2419 171.314 63.2696L174.285 55.8418C171.854 54.8694 169.554 53.8702 167.383 52.8449L163.967 60.0789ZM171.395 63.301C173.707 64.1678 175.855 65.1721 177.846 66.3099L181.816 59.3639C179.432 58.0017 176.893 56.8185 174.204 55.8103L171.395 63.301ZM177.888 66.3335C179.689 67.3336 181.044 68.5277 182.043 69.8899L188.494 65.159C186.743 62.7711 184.473 60.8402 181.774 59.3403L177.888 66.3335ZM182.094 69.9581C182.877 70.9794 183.425 72.4673 183.425 74.7432H191.425C191.425 71.144 190.535 67.8195 188.443 65.0907L182.094 69.9581ZM183.425 74.7432C183.425 77.0681 182.791 79.0259 181.55 80.7541L188.049 85.4197C190.308 82.2729 191.425 78.6682 191.425 74.7432H183.425ZM181.55 80.7541C180.286 82.5148 178.437 83.9994 175.809 85.1328L178.978 92.4785C182.725 90.8619 185.813 88.534 188.049 85.4197L181.55 80.7541ZM175.845 85.1177C173.304 86.1848 170.224 86.7744 166.518 86.7744V94.7744C171.063 94.7744 175.233 94.0516 178.942 92.4936L175.845 85.1177ZM201.87 87.3057L199.624 90.6156C199.646 90.6309 199.669 90.6459 199.692 90.6608L201.87 87.3057ZM193.713 77.4619L190.074 79.1212C190.077 79.128 190.08 79.1348 190.083 79.1416L193.713 77.4619ZM193.807 47.8369L190.199 46.1111C190.192 46.1254 190.185 46.1397 190.178 46.154L193.807 47.8369ZM202.151 37.7119L199.892 34.4107C199.883 34.4169 199.874 34.4232 199.865 34.4295L202.151 37.7119ZM225.682 37.5244L223.393 40.8042C223.402 40.8109 223.412 40.8176 223.421 40.8241L225.682 37.5244ZM233.37 76.6182L229.732 74.9551C229.725 74.9695 229.719 74.984 229.712 74.9985L233.37 76.6182ZM225.401 87.0244L227.782 90.2386C227.795 90.2292 227.807 90.2198 227.82 90.2102L225.401 87.0244ZM224.651 75.7744L228.482 76.9238C228.484 76.9169 228.486 76.91 228.488 76.9031L224.651 75.7744ZM222.495 45.8682L218.927 47.6765C218.937 47.6962 218.947 47.7157 218.957 47.7352L222.495 45.8682ZM204.588 44.6494L201.133 42.6339C201.125 42.6484 201.117 42.6628 201.108 42.6774L204.588 44.6494ZM207.776 82.3369L204.904 85.1215C204.919 85.1362 204.933 85.1508 204.948 85.1653L207.776 82.3369ZM214.057 86.7744C210.208 86.7744 206.913 85.8106 204.048 83.9505L199.692 90.6608C203.951 93.4257 208.782 94.7744 214.057 94.7744V86.7744ZM204.116 83.9958C201.271 82.0651 199.005 79.3726 197.344 75.7822L190.083 79.1416C192.297 83.9262 195.469 87.7962 199.624 90.6156L204.116 83.9958ZM197.353 75.8027C195.694 72.1635 194.807 67.8409 194.807 62.7432H186.807C186.807 68.7704 187.858 74.2604 190.074 79.1212L197.353 75.8027ZM194.807 62.7432C194.807 57.5941 195.721 53.2171 197.436 49.5198L190.178 46.154C187.893 51.0817 186.807 56.6423 186.807 62.7432H194.807ZM197.416 49.5627C199.216 45.7978 201.571 42.9901 204.437 40.9943L199.865 34.4295C195.731 37.3087 192.523 41.251 190.199 46.1111L197.416 49.5627ZM204.41 41.0131C207.278 39.0509 210.515 38.0557 214.245 38.0557V30.0557C208.975 30.0557 204.149 31.4979 199.892 34.4107L204.41 41.0131ZM214.245 38.0557C217.797 38.0557 220.798 38.9929 223.393 40.8042L227.972 34.2446C223.942 31.431 219.318 30.0557 214.245 30.0557V38.0557ZM223.421 40.8241C226.117 42.6712 228.295 45.3101 229.906 48.9091L237.208 45.6398C235.069 40.8637 231.998 37.0027 227.943 34.2247L223.421 40.8241ZM229.906 48.9091C231.508 52.4852 232.37 56.7831 232.37 61.8994H240.37C240.37 55.8907 239.357 50.4386 237.208 45.6398L229.906 48.9091ZM232.37 61.8994C232.37 66.8379 231.464 71.1662 229.732 74.9551L237.008 78.2812C239.276 73.3201 240.37 67.8359 240.37 61.8994H232.37ZM229.712 74.9985C228.013 78.8362 225.752 81.7355 222.982 83.8386L227.82 90.2102C231.8 87.1883 234.852 83.1501 237.027 78.2379L229.712 74.9985ZM223.02 83.8102C220.332 85.8015 217.385 86.7744 214.057 86.7744V94.7744C219.105 94.7744 223.72 93.2473 227.782 90.2386L223.02 83.8102ZM214.713 89.3369C218.076 89.3369 221.066 88.113 223.488 85.7807L217.939 80.0181C216.986 80.9359 215.976 81.3369 214.713 81.3369V89.3369ZM223.488 85.7807C225.827 83.5279 227.421 80.4617 228.482 76.9238L220.82 74.625C220.006 77.3371 218.974 79.0209 217.939 80.0181L223.488 85.7807ZM228.488 76.9031C229.564 73.2455 230.057 68.9997 230.057 64.2432H222.057C222.057 68.4867 221.613 71.9284 220.814 74.6458L228.488 76.9031ZM230.057 64.2432C230.057 56.1535 228.829 49.3 226.032 44.0011L218.957 47.7352C220.911 51.4363 222.057 56.8329 222.057 64.2432H230.057ZM226.063 44.0598C223.356 38.719 219.202 35.0244 213.401 35.0244V43.0244C215.1 43.0244 217.009 43.8923 218.927 47.6765L226.063 44.0598ZM213.401 35.0244C208.015 35.0244 203.887 37.9134 201.133 42.6339L208.044 46.6649C209.665 43.8854 211.412 43.0244 213.401 43.0244V35.0244ZM201.108 42.6774C198.493 47.2934 197.401 53.4693 197.401 60.7744H205.401C205.401 54.0795 206.434 49.5055 208.069 46.6215L201.108 42.6774ZM197.401 60.7744C197.401 66.0024 197.995 70.7245 199.263 74.8791L206.914 72.5447C205.932 69.3244 205.401 65.4214 205.401 60.7744H197.401ZM199.263 74.8791C200.512 78.9754 202.338 82.4746 204.904 85.1215L210.648 79.5523C209.214 78.0742 207.915 75.8234 206.914 72.5447L199.263 74.8791ZM204.948 85.1653C207.633 87.8512 210.94 89.3369 214.713 89.3369V81.3369C213.237 81.3369 211.919 80.8226 210.604 79.5085L204.948 85.1653ZM253.436 87.3057L251.19 90.6156C251.213 90.6309 251.235 90.6459 251.258 90.6608L253.436 87.3057ZM245.28 77.4619L241.64 79.1212C241.643 79.128 241.646 79.1348 241.649 79.1416L245.28 77.4619ZM245.373 47.8369L241.765 46.1111C241.758 46.1254 241.751 46.1397 241.745 46.154L245.373 47.8369ZM253.717 37.7119L251.458 34.4107C251.449 34.4169 251.44 34.4232 251.431 34.4295L253.717 37.7119ZM277.248 37.5244L274.959 40.8042C274.968 40.8109 274.978 40.8176 274.988 40.8241L277.248 37.5244ZM284.936 76.6182L281.298 74.9551C281.291 74.9695 281.285 74.984 281.279 74.9985L284.936 76.6182ZM276.967 87.0244L279.348 90.2386C279.361 90.2292 279.373 90.2198 279.386 90.2102L276.967 87.0244ZM276.217 75.7744L280.049 76.9238C280.051 76.9169 280.053 76.91 280.055 76.9031L276.217 75.7744ZM274.061 45.8682L270.493 47.6765C270.503 47.6962 270.513 47.7157 270.523 47.7352L274.061 45.8682ZM256.155 44.6494L252.7 42.6339C252.691 42.6484 252.683 42.6628 252.675 42.6774L256.155 44.6494ZM259.342 82.3369L256.471 85.1215C256.485 85.1362 256.499 85.1508 256.514 85.1653L259.342 82.3369ZM265.623 86.7744C261.774 86.7744 258.479 85.8106 255.614 83.9505L251.258 90.6608C255.518 93.4257 260.348 94.7744 265.623 94.7744V86.7744ZM255.682 83.9958C252.837 82.0651 250.571 79.3726 248.91 75.7822L241.649 79.1416C243.863 83.9262 247.035 87.7962 251.19 90.6156L255.682 83.9958ZM248.919 75.8027C247.26 72.1635 246.373 67.8409 246.373 62.7432H238.373C238.373 68.7704 239.424 74.2604 241.64 79.1212L248.919 75.8027ZM246.373 62.7432C246.373 57.5941 247.288 53.2171 249.002 49.5198L241.745 46.154C239.459 51.0817 238.373 56.6423 238.373 62.7432H246.373ZM248.982 49.5627C250.783 45.7978 253.137 42.9901 256.003 40.9943L251.431 34.4295C247.297 37.3087 244.089 41.251 241.765 46.1111L248.982 49.5627ZM255.976 41.0131C258.844 39.0509 262.081 38.0557 265.811 38.0557V30.0557C260.541 30.0557 255.716 31.4979 251.458 34.4107L255.976 41.0131ZM265.811 38.0557C269.363 38.0557 272.364 38.9929 274.959 40.8042L279.538 34.2446C275.508 31.431 270.884 30.0557 265.811 30.0557V38.0557ZM274.988 40.8241C277.683 42.6712 279.861 45.3101 281.473 48.9091L288.774 45.6398C286.636 40.8637 283.564 37.0027 279.509 34.2247L274.988 40.8241ZM281.473 48.9091C283.074 52.4852 283.936 56.7831 283.936 61.8994H291.936C291.936 55.8907 290.923 50.4386 288.774 45.6398L281.473 48.9091ZM283.936 61.8994C283.936 66.8379 283.03 71.1662 281.298 74.9551L288.574 78.2812C290.842 73.3201 291.936 67.8359 291.936 61.8994H283.936ZM281.279 74.9985C279.579 78.8362 277.318 81.7355 274.548 83.8386L279.386 90.2102C283.366 87.1883 286.418 83.1501 288.593 78.2379L281.279 74.9985ZM274.586 83.8102C271.898 85.8015 268.951 86.7744 265.623 86.7744V94.7744C270.671 94.7744 275.286 93.2473 279.348 90.2386L274.586 83.8102ZM266.28 89.3369C269.642 89.3369 272.632 88.113 275.054 85.7807L269.505 80.0181C268.552 80.9359 267.542 81.3369 266.28 81.3369V89.3369ZM275.054 85.7807C277.394 83.5279 278.987 80.4617 280.049 76.9238L272.386 74.625C271.572 77.3371 270.541 79.0209 269.505 80.0181L275.054 85.7807ZM280.055 76.9031C281.13 73.2455 281.623 68.9997 281.623 64.2432H273.623C273.623 68.4867 273.179 71.9284 272.38 74.6458L280.055 76.9031ZM281.623 64.2432C281.623 56.1535 280.395 49.3 277.599 44.0011L270.523 47.7352C272.477 51.4363 273.623 56.8329 273.623 64.2432H281.623ZM277.629 44.0598C274.922 38.719 270.769 35.0244 264.967 35.0244V43.0244C266.666 43.0244 268.575 43.8923 270.493 47.6765L277.629 44.0598ZM264.967 35.0244C259.581 35.0244 255.453 37.9134 252.7 42.6339L259.61 46.6649C261.231 43.8854 262.978 43.0244 264.967 43.0244V35.0244ZM252.675 42.6774C250.059 47.2934 248.967 53.4693 248.967 60.7744H256.967C256.967 54.0795 258.001 49.5055 259.635 46.6215L252.675 42.6774ZM248.967 60.7744C248.967 66.0024 249.561 70.7245 250.829 74.8791L258.481 72.5447C257.498 69.3244 256.967 65.4214 256.967 60.7744H248.967ZM250.829 74.8791C252.079 78.9754 253.904 82.4746 256.471 85.1215L262.214 79.5523C260.781 78.0742 259.481 75.8234 258.481 72.5447L250.829 74.8791ZM256.514 85.1653C259.2 87.8512 262.506 89.3369 266.28 89.3369V81.3369C264.803 81.3369 263.485 80.8226 262.171 79.5085L256.514 85.1653Z" fill="white" mask="url(#path-7-outside-4_25_7914)"/>
<path d="M106.785 90.7744C102.722 90.7744 99.191 90.1494 96.191 88.8994C93.2535 87.6494 90.941 85.9307 89.2535 83.7432C87.6285 81.5557 86.816 79.0557 86.816 76.2432C86.816 72.6182 88.1597 69.5869 90.8472 67.1494C93.5347 64.7119 97.2222 62.9932 101.91 61.9932L104.253 63.5869C101.378 65.3994 99.3472 67.3057 98.1597 69.3057C96.9722 71.2432 96.3785 73.3057 96.3785 75.4932C96.3785 78.3682 97.4097 80.7432 99.4722 82.6182C101.535 84.4932 104.41 85.4307 108.097 85.4307C111.222 85.4307 113.691 84.7432 115.503 83.3682C117.316 81.9307 118.222 79.9932 118.222 77.5557C118.222 75.3057 117.503 73.4619 116.066 72.0244C114.691 70.5869 112.878 69.3682 110.628 68.3682C108.441 67.3057 106.097 66.2744 103.597 65.2744C101.16 64.2744 98.816 63.1182 96.566 61.8057C94.316 60.4932 92.4722 58.8369 91.0347 56.8369C89.6597 54.8369 88.9722 52.2744 88.9722 49.1494C88.9722 46.2119 89.7847 43.6182 91.4097 41.3682C93.0972 39.1182 95.3785 37.3369 98.2535 36.0244C101.128 34.7119 104.41 34.0557 108.097 34.0557C111.722 34.0557 114.816 34.6494 117.378 35.8369C120.003 37.0244 122.035 38.6807 123.472 40.8057C124.972 42.9307 125.722 45.3369 125.722 48.0244C125.722 51.4619 124.628 54.3994 122.441 56.8369C120.316 59.2744 117.285 61.1182 113.347 62.3682L111.66 61.1494C113.472 59.1494 114.753 57.2119 115.503 55.3369C116.316 53.3994 116.722 51.2744 116.722 48.9619C116.722 45.8994 115.878 43.4619 114.191 41.6494C112.566 39.7744 110.253 38.8369 107.253 38.8369C104.691 38.8369 102.566 39.5557 100.878 40.9932C99.2535 42.3682 98.441 44.2744 98.441 46.7119C98.441 49.0869 99.1285 51.0244 100.503 52.5244C101.941 54.0244 103.753 55.3369 105.941 56.4619C108.191 57.5244 110.566 58.5557 113.066 59.5557C115.566 60.4932 117.91 61.5869 120.097 62.8369C122.347 64.0869 124.16 65.6494 125.535 67.5244C126.972 69.3994 127.691 71.8057 127.691 74.7432C127.691 77.8682 126.816 80.6494 125.066 83.0869C123.316 85.5244 120.847 87.4307 117.66 88.8057C114.535 90.1182 110.91 90.7744 106.785 90.7744ZM129.386 107.462L127.886 104.368C130.761 103.118 132.886 101.649 134.261 99.9619C135.698 98.3369 136.417 96.4619 136.417 94.3369C136.417 93.2119 136.198 92.3057 135.761 91.6182C135.386 90.9932 134.886 90.4307 134.261 89.9307C133.698 89.3682 133.105 88.8369 132.48 88.3369C131.917 87.7744 131.417 87.1182 130.98 86.3682C130.605 85.6182 130.417 84.6807 130.417 83.5557C130.417 81.9307 131.011 80.5557 132.198 79.4307C133.448 78.2432 135.011 77.6494 136.886 77.6494C138.073 77.6494 139.23 77.9932 140.355 78.6807C141.542 79.3057 142.48 80.3369 143.167 81.7744C143.855 83.2119 144.198 85.0557 144.198 87.3057C144.198 90.0557 143.605 92.7432 142.417 95.3682C141.292 97.9932 139.605 100.337 137.355 102.399C135.167 104.524 132.511 106.212 129.386 107.462ZM166.518 90.7744C162.456 90.7744 158.925 90.1494 155.925 88.8994C152.987 87.6494 150.675 85.9307 148.987 83.7432C147.362 81.5557 146.55 79.0557 146.55 76.2432C146.55 72.6182 147.893 69.5869 150.581 67.1494C153.268 64.7119 156.956 62.9932 161.643 61.9932L163.987 63.5869C161.112 65.3994 159.081 67.3057 157.893 69.3057C156.706 71.2432 156.112 73.3057 156.112 75.4932C156.112 78.3682 157.143 80.7432 159.206 82.6182C161.268 84.4932 164.143 85.4307 167.831 85.4307C170.956 85.4307 173.425 84.7432 175.237 83.3682C177.05 81.9307 177.956 79.9932 177.956 77.5557C177.956 75.3057 177.237 73.4619 175.8 72.0244C174.425 70.5869 172.612 69.3682 170.362 68.3682C168.175 67.3057 165.831 66.2744 163.331 65.2744C160.893 64.2744 158.55 63.1182 156.3 61.8057C154.05 60.4932 152.206 58.8369 150.768 56.8369C149.393 54.8369 148.706 52.2744 148.706 49.1494C148.706 46.2119 149.518 43.6182 151.143 41.3682C152.831 39.1182 155.112 37.3369 157.987 36.0244C160.862 34.7119 164.143 34.0557 167.831 34.0557C171.456 34.0557 174.55 34.6494 177.112 35.8369C179.737 37.0244 181.768 38.6807 183.206 40.8057C184.706 42.9307 185.456 45.3369 185.456 48.0244C185.456 51.4619 184.362 54.3994 182.175 56.8369C180.05 59.2744 177.018 61.1182 173.081 62.3682L171.393 61.1494C173.206 59.1494 174.487 57.2119 175.237 55.3369C176.05 53.3994 176.456 51.2744 176.456 48.9619C176.456 45.8994 175.612 43.4619 173.925 41.6494C172.3 39.7744 169.987 38.8369 166.987 38.8369C164.425 38.8369 162.3 39.5557 160.612 40.9932C158.987 42.3682 158.175 44.2744 158.175 46.7119C158.175 49.0869 158.862 51.0244 160.237 52.5244C161.675 54.0244 163.487 55.3369 165.675 56.4619C167.925 57.5244 170.3 58.5557 172.8 59.5557C175.3 60.4932 177.643 61.5869 179.831 62.8369C182.081 64.0869 183.893 65.6494 185.268 67.5244C186.706 69.3994 187.425 71.8057 187.425 74.7432C187.425 77.8682 186.55 80.6494 184.8 83.0869C183.05 85.5244 180.581 87.4307 177.393 88.8057C174.268 90.1182 170.643 90.7744 166.518 90.7744ZM214.057 90.7744C209.495 90.7744 205.432 89.6182 201.87 87.3057C198.37 84.9307 195.651 81.6494 193.713 77.4619C191.776 73.2119 190.807 68.3057 190.807 62.7432C190.807 57.1182 191.807 52.1494 193.807 47.8369C195.87 43.5244 198.651 40.1494 202.151 37.7119C205.713 35.2744 209.745 34.0557 214.245 34.0557C218.557 34.0557 222.37 35.2119 225.682 37.5244C229.057 39.8369 231.682 43.0869 233.557 47.2744C235.432 51.4619 236.37 56.3369 236.37 61.8994C236.37 67.3369 235.37 72.2432 233.37 76.6182C231.432 80.9932 228.776 84.4619 225.401 87.0244C222.026 89.5244 218.245 90.7744 214.057 90.7744ZM214.713 85.3369C217.026 85.3369 219.026 84.5244 220.713 82.8994C222.401 81.2744 223.713 78.8994 224.651 75.7744C225.588 72.5869 226.057 68.7432 226.057 64.2432C226.057 56.4932 224.87 50.3682 222.495 45.8682C220.182 41.3057 217.151 39.0244 213.401 39.0244C209.713 39.0244 206.776 40.8994 204.588 44.6494C202.463 48.3994 201.401 53.7744 201.401 60.7744C201.401 65.7119 201.963 70.0244 203.088 73.7119C204.213 77.3994 205.776 80.2744 207.776 82.3369C209.776 84.3369 212.088 85.3369 214.713 85.3369ZM265.623 90.7744C261.061 90.7744 256.998 89.6182 253.436 87.3057C249.936 84.9307 247.217 81.6494 245.28 77.4619C243.342 73.2119 242.373 68.3057 242.373 62.7432C242.373 57.1182 243.373 52.1494 245.373 47.8369C247.436 43.5244 250.217 40.1494 253.717 37.7119C257.28 35.2744 261.311 34.0557 265.811 34.0557C270.123 34.0557 273.936 35.2119 277.248 37.5244C280.623 39.8369 283.248 43.0869 285.123 47.2744C286.998 51.4619 287.936 56.3369 287.936 61.8994C287.936 67.3369 286.936 72.2432 284.936 76.6182C282.998 80.9932 280.342 84.4619 276.967 87.0244C273.592 89.5244 269.811 90.7744 265.623 90.7744ZM266.28 85.3369C268.592 85.3369 270.592 84.5244 272.28 82.8994C273.967 81.2744 275.28 78.8994 276.217 75.7744C277.155 72.5869 277.623 68.7432 277.623 64.2432C277.623 56.4932 276.436 50.3682 274.061 45.8682C271.748 41.3057 268.717 39.0244 264.967 39.0244C261.28 39.0244 258.342 40.8994 256.155 44.6494C254.03 48.3994 252.967 53.7744 252.967 60.7744C252.967 65.7119 253.53 70.0244 254.655 73.7119C255.78 77.3994 257.342 80.2744 259.342 82.3369C261.342 84.3369 263.655 85.3369 266.28 85.3369Z" fill="#B89038"/>
<g style="mix-blend-mode:overlay">
<path d="M103.785 88.7744C99.7222 88.7744 96.191 88.1494 93.191 86.8994C90.2535 85.6494 87.941 83.9307 86.2535 81.7432C84.6285 79.5557 83.816 77.0557 83.816 74.2432C83.816 70.6182 85.1597 67.5869 87.8472 65.1494C90.5347 62.7119 94.2222 60.9932 98.9097 59.9932L101.253 61.5869C98.3785 63.3994 96.3472 65.3057 95.1597 67.3057C93.9722 69.2432 93.3785 71.3057 93.3785 73.4932C93.3785 76.3682 94.4097 78.7432 96.4722 80.6182C98.5347 82.4932 101.41 83.4307 105.097 83.4307C108.222 83.4307 110.691 82.7432 112.503 81.3682C114.316 79.9307 115.222 77.9932 115.222 75.5557C115.222 73.3057 114.503 71.4619 113.066 70.0244C111.691 68.5869 109.878 67.3682 107.628 66.3682C105.441 65.3057 103.097 64.2744 100.597 63.2744C98.1597 62.2744 95.816 61.1182 93.566 59.8057C91.316 58.4932 89.4722 56.8369 88.0347 54.8369C86.6597 52.8369 85.9722 50.2744 85.9722 47.1494C85.9722 44.2119 86.7847 41.6182 88.4097 39.3682C90.0972 37.1182 92.3785 35.3369 95.2535 34.0244C98.1285 32.7119 101.41 32.0557 105.097 32.0557C108.722 32.0557 111.816 32.6494 114.378 33.8369C117.003 35.0244 119.035 36.6807 120.472 38.8057C121.972 40.9307 122.722 43.3369 122.722 46.0244C122.722 49.4619 121.628 52.3994 119.441 54.8369C117.316 57.2744 114.285 59.1182 110.347 60.3682L108.66 59.1494C110.472 57.1494 111.753 55.2119 112.503 53.3369C113.316 51.3994 113.722 49.2744 113.722 46.9619C113.722 43.8994 112.878 41.4619 111.191 39.6494C109.566 37.7744 107.253 36.8369 104.253 36.8369C101.691 36.8369 99.566 37.5557 97.8785 38.9932C96.2535 40.3682 95.441 42.2744 95.441 44.7119C95.441 47.0869 96.1285 49.0244 97.5035 50.5244C98.941 52.0244 100.753 53.3369 102.941 54.4619C105.191 55.5244 107.566 56.5557 110.066 57.5557C112.566 58.4932 114.91 59.5869 117.097 60.8369C119.347 62.0869 121.16 63.6494 122.535 65.5244C123.972 67.3994 124.691 69.8057 124.691 72.7432C124.691 75.8682 123.816 78.6494 122.066 81.0869C120.316 83.5244 117.847 85.4307 114.66 86.8057C111.535 88.1182 107.91 88.7744 103.785 88.7744ZM126.386 105.462L124.886 102.368C127.761 101.118 129.886 99.6494 131.261 97.9619C132.698 96.3369 133.417 94.4619 133.417 92.3369C133.417 91.2119 133.198 90.3057 132.761 89.6182C132.386 88.9932 131.886 88.4307 131.261 87.9307C130.698 87.3682 130.105 86.8369 129.48 86.3369C128.917 85.7744 128.417 85.1182 127.98 84.3682C127.605 83.6182 127.417 82.6807 127.417 81.5557C127.417 79.9307 128.011 78.5557 129.198 77.4307C130.448 76.2432 132.011 75.6494 133.886 75.6494C135.073 75.6494 136.23 75.9932 137.355 76.6807C138.542 77.3057 139.48 78.3369 140.167 79.7744C140.855 81.2119 141.198 83.0557 141.198 85.3057C141.198 88.0557 140.605 90.7432 139.417 93.3682C138.292 95.9932 136.605 98.3369 134.355 100.399C132.167 102.524 129.511 104.212 126.386 105.462ZM163.518 88.7744C159.456 88.7744 155.925 88.1494 152.925 86.8994C149.987 85.6494 147.675 83.9307 145.987 81.7432C144.362 79.5557 143.55 77.0557 143.55 74.2432C143.55 70.6182 144.893 67.5869 147.581 65.1494C150.268 62.7119 153.956 60.9932 158.643 59.9932L160.987 61.5869C158.112 63.3994 156.081 65.3057 154.893 67.3057C153.706 69.2432 153.112 71.3057 153.112 73.4932C153.112 76.3682 154.143 78.7432 156.206 80.6182C158.268 82.4932 161.143 83.4307 164.831 83.4307C167.956 83.4307 170.425 82.7432 172.237 81.3682C174.05 79.9307 174.956 77.9932 174.956 75.5557C174.956 73.3057 174.237 71.4619 172.8 70.0244C171.425 68.5869 169.612 67.3682 167.362 66.3682C165.175 65.3057 162.831 64.2744 160.331 63.2744C157.893 62.2744 155.55 61.1182 153.3 59.8057C151.05 58.4932 149.206 56.8369 147.768 54.8369C146.393 52.8369 145.706 50.2744 145.706 47.1494C145.706 44.2119 146.518 41.6182 148.143 39.3682C149.831 37.1182 152.112 35.3369 154.987 34.0244C157.862 32.7119 161.143 32.0557 164.831 32.0557C168.456 32.0557 171.55 32.6494 174.112 33.8369C176.737 35.0244 178.768 36.6807 180.206 38.8057C181.706 40.9307 182.456 43.3369 182.456 46.0244C182.456 49.4619 181.362 52.3994 179.175 54.8369C177.05 57.2744 174.018 59.1182 170.081 60.3682L168.393 59.1494C170.206 57.1494 171.487 55.2119 172.237 53.3369C173.05 51.3994 173.456 49.2744 173.456 46.9619C173.456 43.8994 172.612 41.4619 170.925 39.6494C169.3 37.7744 166.987 36.8369 163.987 36.8369C161.425 36.8369 159.3 37.5557 157.612 38.9932C155.987 40.3682 155.175 42.2744 155.175 44.7119C155.175 47.0869 155.862 49.0244 157.237 50.5244C158.675 52.0244 160.487 53.3369 162.675 54.4619C164.925 55.5244 167.3 56.5557 169.8 57.5557C172.3 58.4932 174.643 59.5869 176.831 60.8369C179.081 62.0869 180.893 63.6494 182.268 65.5244C183.706 67.3994 184.425 69.8057 184.425 72.7432C184.425 75.8682 183.55 78.6494 181.8 81.0869C180.05 83.5244 177.581 85.4307 174.393 86.8057C171.268 88.1182 167.643 88.7744 163.518 88.7744ZM211.057 88.7744C206.495 88.7744 202.432 87.6182 198.87 85.3057C195.37 82.9307 192.651 79.6494 190.713 75.4619C188.776 71.2119 187.807 66.3057 187.807 60.7432C187.807 55.1182 188.807 50.1494 190.807 45.8369C192.87 41.5244 195.651 38.1494 199.151 35.7119C202.713 33.2744 206.745 32.0557 211.245 32.0557C215.557 32.0557 219.37 33.2119 222.682 35.5244C226.057 37.8369 228.682 41.0869 230.557 45.2744C232.432 49.4619 233.37 54.3369 233.37 59.8994C233.37 65.3369 232.37 70.2432 230.37 74.6182C228.432 78.9932 225.776 82.4619 222.401 85.0244C219.026 87.5244 215.245 88.7744 211.057 88.7744ZM211.713 83.3369C214.026 83.3369 216.026 82.5244 217.713 80.8994C219.401 79.2744 220.713 76.8994 221.651 73.7744C222.588 70.5869 223.057 66.7432 223.057 62.2432C223.057 54.4932 221.87 48.3682 219.495 43.8682C217.182 39.3057 214.151 37.0244 210.401 37.0244C206.713 37.0244 203.776 38.8994 201.588 42.6494C199.463 46.3994 198.401 51.7744 198.401 58.7744C198.401 63.7119 198.963 68.0244 200.088 71.7119C201.213 75.3994 202.776 78.2744 204.776 80.3369C206.776 82.3369 209.088 83.3369 211.713 83.3369ZM262.623 88.7744C258.061 88.7744 253.998 87.6182 250.436 85.3057C246.936 82.9307 244.217 79.6494 242.28 75.4619C240.342 71.2119 239.373 66.3057 239.373 60.7432C239.373 55.1182 240.373 50.1494 242.373 45.8369C244.436 41.5244 247.217 38.1494 250.717 35.7119C254.28 33.2744 258.311 32.0557 262.811 32.0557C267.123 32.0557 270.936 33.2119 274.248 35.5244C277.623 37.8369 280.248 41.0869 282.123 45.2744C283.998 49.4619 284.936 54.3369 284.936 59.8994C284.936 65.3369 283.936 70.2432 281.936 74.6182C279.998 78.9932 277.342 82.4619 273.967 85.0244C270.592 87.5244 266.811 88.7744 262.623 88.7744ZM263.28 83.3369C265.592 83.3369 267.592 82.5244 269.28 80.8994C270.967 79.2744 272.28 76.8994 273.217 73.7744C274.155 70.5869 274.623 66.7432 274.623 62.2432C274.623 54.4932 273.436 48.3682 271.061 43.8682C268.748 39.3057 265.717 37.0244 261.967 37.0244C258.28 37.0244 255.342 38.8994 253.155 42.6494C251.03 46.3994 249.967 51.7744 249.967 58.7744C249.967 63.7119 250.53 68.0244 251.655 71.7119C252.78 75.3994 254.342 78.2744 256.342 80.3369C258.342 82.3369 260.655 83.3369 263.28 83.3369Z" fill="#D8A838"/>
</g>
<circle cx="40.4131" cy="66.8076" r="28" transform="rotate(40 40.4131 66.8076)" fill="#DB7896"/>
<path d="M67.9905 89.9477L55.1878 89.6482L65.4724 77.3915L67.9905 89.9477Z" fill="#DB7896"/>
<path d="M35.0691 74.6052C35.6411 74.6052 35.9785 74.5612 36.0811 74.4732C36.1838 74.3706 36.2351 74.0332 36.2351 73.4612L36.2351 70.1832C36.2351 70.0512 36.1691 69.9852 36.0371 69.9852L25.9391 69.9852C25.8218 69.9852 25.7485 70.0586 25.7191 70.2052C25.3378 72.4932 24.4651 74.4292 23.1011 76.0133C22.8958 76.2626 22.6245 76.3946 22.2871 76.4092C21.9644 76.4386 21.6711 76.3506 21.4071 76.1453C21.1578 75.9546 21.0184 75.7126 20.9891 75.4193C20.9598 75.1259 21.0404 74.8546 21.2311 74.6052C22.1258 73.5199 22.7491 72.3099 23.1011 70.9752C23.4531 69.6406 23.6291 67.8292 23.6291 65.5412L23.6291 58.6552C23.6291 58.3179 23.7538 58.0246 24.0031 57.7752C24.2524 57.5259 24.5458 57.4012 24.8831 57.4012L37.3351 57.4012C37.6725 57.4012 37.9658 57.5259 38.2151 57.7752C38.4645 58.0246 38.5891 58.3179 38.5891 58.6552L38.5891 73.4612C38.5891 74.9132 38.4205 75.8079 38.0831 76.1452C37.7605 76.4826 36.9171 76.6512 35.5531 76.6512C35.0398 76.6512 34.1671 76.6292 32.9351 76.5852C32.6565 76.5706 32.4145 76.4606 32.2091 76.2552C32.0038 76.0646 31.8938 75.8226 31.8791 75.5292C31.8645 75.2506 31.9525 75.0086 32.1431 74.8032C32.3338 74.6126 32.5685 74.5246 32.8471 74.5392C33.9911 74.5832 34.7318 74.6052 35.0691 74.6052ZM26.0051 59.5792L26.0051 62.4392C26.0051 62.5712 26.0638 62.6372 26.1811 62.6372L36.0371 62.6372C36.1691 62.6372 36.2351 62.5712 36.2351 62.4392L36.2351 59.5792C36.2351 59.4472 36.1691 59.3812 36.0371 59.3812L26.1811 59.3812C26.0638 59.3812 26.0051 59.4472 26.0051 59.5792ZM36.0371 68.0712C36.1691 68.0712 36.2351 68.0052 36.2351 67.8732L36.2351 64.7492C36.2351 64.6172 36.1691 64.5512 36.0371 64.5512L26.1811 64.5512C26.0638 64.5512 26.0051 64.6172 26.0051 64.7492L26.0051 66.4652C26.0051 66.8172 25.9905 67.2866 25.9611 67.8732C25.9611 68.0052 26.0198 68.0712 26.1371 68.0712L36.0371 68.0712ZM42.1971 69.7652C41.9478 69.5746 41.8084 69.3252 41.7791 69.0172C41.7644 68.6946 41.8598 68.4159 42.0651 68.1812C44.5878 65.3359 46.5384 62.0579 47.9171 58.3472C48.0344 58.0246 48.2398 57.7826 48.5331 57.6212C48.8265 57.4452 49.1345 57.3866 49.4571 57.4452C49.7651 57.5039 49.9924 57.6726 50.1391 57.9512C50.3004 58.2299 50.3298 58.5159 50.2271 58.8092L49.5671 60.5252C49.5084 60.6426 49.5451 60.7012 49.6771 60.7012L57.0691 60.7012C57.3478 60.7012 57.5825 60.7966 57.7731 60.9872C57.9785 61.1779 58.0811 61.4199 58.0811 61.7132C58.0811 62.5346 58.0005 63.2019 57.8391 63.7152C57.0618 66.2672 55.5805 68.7826 53.3951 71.2612C53.3218 71.3639 53.3218 71.4519 53.3951 71.5252C54.3191 72.4052 55.0891 73.1679 55.7051 73.8132C55.9251 74.0479 56.0278 74.3266 56.0131 74.6492C55.9985 74.9719 55.8665 75.2359 55.6171 75.4412C55.3678 75.6466 55.0818 75.7419 54.7591 75.7272C54.4511 75.7126 54.1871 75.5879 53.9671 75.3532C52.1485 73.3879 50.0731 71.4886 47.7411 69.6552C47.4918 69.4646 47.3524 69.2152 47.3231 68.9072C47.2938 68.5992 47.3818 68.3279 47.5871 68.0932C47.8071 67.8586 48.0785 67.7266 48.4011 67.6972C48.7384 67.6679 49.0318 67.7559 49.2811 67.9612C49.7651 68.3426 50.4765 68.9292 51.4151 69.7212C51.5325 69.8092 51.6205 69.8092 51.6791 69.7212C53.6444 67.4772 54.9571 65.2112 55.6171 62.9232C55.6465 62.7912 55.6025 62.7252 55.4851 62.7252L48.7311 62.7252C48.5991 62.7252 48.5038 62.7912 48.4451 62.9232C47.2131 65.3726 45.7098 67.6019 43.9351 69.6112C43.7151 69.8606 43.4364 69.9999 43.0991 70.0292C42.7618 70.0586 42.4611 69.9706 42.1971 69.7652Z" fill="white"/>
</svg>
