<svg width="12" height="17" viewBox="0 0 12 17" fill="none" xmlns="http://www.w3.org/2000/svg">
<path d="M3.70815 5.54571C4.5011 5.07323 5.15011 4.64371 5.37309 4.50786C5.59708 4.378 5.58801 4.04037 5.39702 3.72472C5.20603 3.40507 3.63515 0.772969 3.63515 0.772969C3.38817 0.362421 3.12121 -0.0581198 2.73823 0.169629C2.35625 0.397379 2.07127 0.565196 1.08732 1.15155C0.101379 1.73691 -1.20157 5.02828 2.21824 10.768C5.64405 16.5096 9.16286 16.9312 10.1498 16.3438C11.1337 15.7595 11.4198 15.5886 11.7997 15.3639C12.1827 15.1351 11.9417 14.6986 11.6957 14.2851C11.6957 14.2851 10.1268 11.655 9.93583 11.3333C9.74684 11.0167 9.45182 10.8499 9.22884 10.9797C9.00685 11.1136 8.32186 11.4772 7.5269 11.9517C6.73295 12.4211 5.84807 11.2304 4.69613 9.29458C3.54419 7.36071 2.91319 6.0142 3.70815 5.54571Z" fill="#69A596"/>
</svg>
